<svg width="390" height="298" viewBox="0 0 390 298" fill="none" xmlns="http://www.w3.org/2000/svg">
<path d="M376.598 0.108887H13.4024C6.00082 0.108887 0 6.11041 0 13.5146V283.628C0 291.032 6.00082 297.034 13.4024 297.034H376.597C383.999 297.034 389.999 291.032 389.999 283.628V13.5146C390 6.11041 383.999 0.108887 376.598 0.108887Z" fill="#1685FB"/>
<path d="M390 283.625V13.5168C390 6.1073 383.997 0.110352 376.597 0.110352H355.018C362.418 0.110352 368.421 6.1073 368.421 13.5168V283.624C368.421 291.034 362.418 297.031 355.018 297.031H376.597C383.997 297.031 390 291.035 390 283.625Z" fill="#4C60E1"/>
<path d="M390 58.1622V13.5168C390 6.1073 383.997 0.110352 376.597 0.110352H13.4032C6.00311 0.111113 0 6.10807 0 13.5168V58.1622H390Z" fill="#E3F4FF"/>
<path d="M390 58.1622V13.5168C390 6.1073 383.997 0.110352 376.597 0.110352H355.018C362.418 0.110352 368.421 6.1073 368.421 13.5168V58.1622H390Z" fill="#BDDFF4"/>
<path d="M75.416 34.9675H75.3421C72.0918 34.9675 69.457 32.3321 69.457 29.0811C69.457 25.83 72.0918 23.1946 75.3421 23.1946C78.5923 23.1946 81.2644 25.83 81.2644 29.0811C81.2644 32.3321 78.6662 34.9675 75.416 34.9675Z" fill="#54DDAC"/>
<path d="M56.1338 35.024C52.9118 35.024 50.2838 32.429 50.2503 29.1985C50.2161 25.9474 52.8234 23.2846 56.0737 23.2503C59.2889 23.2069 62.0227 25.824 62.057 29.0751C62.0913 32.3269 59.5205 34.989 56.2702 35.0232L56.1963 35.024C56.1757 35.024 56.1544 35.024 56.1338 35.024Z" fill="#FDC142"/>
<path d="M36.9249 35.0796C33.7028 35.0796 31.0741 32.4846 31.0413 29.2541C31.0078 26.0023 33.6152 23.3394 36.8654 23.3059C36.886 23.3059 36.9073 23.3059 36.9271 23.3059C40.15 23.3059 42.8145 25.901 42.848 29.1314C42.8815 32.3825 40.3115 35.0453 37.0604 35.0789L36.9865 35.0796C36.9667 35.0796 36.9454 35.0796 36.9249 35.0796Z" fill="#FC3E81"/>
<path d="M131.659 35.0796H111.235C107.984 35.0796 105.35 32.4442 105.35 29.1931C105.35 25.9421 107.984 23.3066 111.235 23.3066H131.659C134.909 23.3066 137.544 25.9421 137.544 29.1931C137.544 32.4442 134.909 35.0796 131.659 35.0796Z" fill="#BDDFF4"/>
<path d="M126.658 141.593H121.552V134.638C121.552 128.84 116.846 124.14 111.04 124.14C105.235 124.14 100.528 128.84 100.528 134.638V141.593H75.998L93.662 111.727C96.6144 106.735 94.9557 100.297 89.9568 97.3487C84.958 94.3994 78.5123 96.0566 75.5599 101.048L48.529 146.752C46.6098 149.997 46.5801 154.021 48.4506 157.295C50.3218 160.568 53.806 162.589 57.5805 162.589H100.529V194.228C100.529 200.026 105.235 204.726 111.041 204.726C116.847 204.726 121.553 200.026 121.553 194.228V162.589H126.659C132.464 162.589 137.171 157.889 137.171 152.091C137.17 146.293 132.464 141.593 126.658 141.593Z" fill="#FD9E28"/>
<path d="M332.418 141.593H327.313V134.638C327.313 128.84 322.607 124.14 316.801 124.14C310.995 124.14 306.289 128.84 306.289 134.638V141.593H281.758L299.422 111.727C302.374 106.735 300.715 100.297 295.717 97.3487C290.718 94.3994 284.272 96.0566 281.32 101.048L254.289 146.752C252.37 149.997 252.34 154.021 254.21 157.295C256.082 160.568 259.566 162.589 263.34 162.589H306.289V194.228C306.289 200.026 310.995 204.726 316.801 204.726C322.607 204.726 327.313 200.026 327.313 194.228V162.589H332.418C338.224 162.589 342.93 157.889 342.93 152.091C342.93 146.293 338.224 141.593 332.418 141.593Z" fill="#FD9E28"/>
<path fill-rule="evenodd" clip-rule="evenodd" d="M181.549 204.725H208.451C221.76 204.725 232.588 193.912 232.588 180.619V119.993C232.588 106.701 221.76 95.887 208.451 95.887H181.549C168.24 95.887 157.412 106.7 157.412 119.993V180.619C157.412 193.911 168.24 204.725 181.549 204.725ZM180.368 124.144C180.368 121.206 182.763 118.814 185.705 118.814H204.294C207.237 118.814 209.632 121.206 209.632 124.144V176.468C209.632 179.407 207.237 181.798 204.294 181.798H185.705C182.763 181.798 180.368 179.406 180.368 176.468V124.144Z" fill="#FD9E28"/>
<path d="M283.274 272.579C280.011 272.579 277.328 269.934 277.328 266.671C277.328 263.408 279.936 260.763 283.199 260.763H283.274C286.537 260.763 289.182 263.408 289.182 266.671C289.182 269.934 286.537 272.579 283.274 272.579Z" fill="#E3F4FF"/>
<path d="M302.841 272.636C299.578 272.636 296.895 269.991 296.895 266.728C296.895 263.465 299.502 260.82 302.766 260.82H302.841C306.104 260.82 308.749 263.465 308.749 266.728C308.749 269.991 306.104 272.636 302.841 272.636Z" fill="#E3F4FF"/>
<path d="M322.41 272.693C322.39 272.693 322.369 272.693 322.348 272.693C319.085 272.66 316.43 269.987 316.463 266.724C316.497 263.482 319.098 260.875 322.333 260.875C322.354 260.875 322.374 260.875 322.395 260.875L322.47 260.876C325.733 260.91 328.351 263.582 328.317 266.846C328.284 270.087 325.644 272.693 322.41 272.693Z" fill="#E3F4FF"/>
<path d="M69.8367 248.314H50.2694C47.0064 248.314 44.3613 245.692 44.3613 242.458C44.3613 239.224 47.0064 236.602 50.2694 236.602H69.8367C73.0997 236.602 75.7449 239.224 75.7449 242.458C75.7449 245.692 73.0997 248.314 69.8367 248.314Z" fill="#E3F4FF"/>
<path d="M89.404 272.639H50.2694C47.0064 272.639 44.3613 270.017 44.3613 266.783C44.3613 263.548 47.0064 260.926 50.2694 260.926H89.404C92.667 260.926 95.3122 263.548 95.3122 266.783C95.3122 270.017 92.667 272.639 89.404 272.639Z" fill="#E3F4FF"/>
</svg>
