<svg width="1440" height="1070" viewBox="0 0 1440 1070" fill="none" xmlns="http://www.w3.org/2000/svg">
<rect width="1440" height="1070" fill="#4880FF"/>
<path fill-rule="evenodd" clip-rule="evenodd" d="M272.5 1380.45C519.647 1380.45 720 1180.09 720 932.945C720 800.821 401.153 910.361 310.095 828.445C230.823 757.132 387.523 485.445 272.5 485.445C25.3526 485.445 -175 685.798 -175 932.945C-175 1180.09 25.3526 1380.45 272.5 1380.45Z" fill="#568AFF"/>
<path opacity="0.541829" fill-rule="evenodd" clip-rule="evenodd" d="M866.242 -218.518C815.298 70.3999 1003.72 345.119 1287.08 395.085C1438.57 421.796 1378.7 26.9156 1491.39 -62.9712C1589.5 -141.224 1868.7 96.8866 1892.41 -37.5766C1943.36 -326.494 1754.94 -601.214 1471.57 -651.179C1188.2 -701.145 917.186 -507.436 866.242 -218.518Z" fill="#568AFF"/>
<path opacity="0.6" fill-rule="evenodd" clip-rule="evenodd" d="M219.512 -233.501C-12.7303 -148.971 -132.476 107.823 -47.9461 340.066C-2.75693 464.222 259.396 252.236 372.979 298.068C471.861 337.968 417.534 646.864 525.62 607.524C757.863 522.995 877.608 266.2 793.079 33.9575C708.549 -198.285 451.755 -318.03 219.512 -233.501Z" fill="#568AFF"/>
<path fill-rule="evenodd" clip-rule="evenodd" d="M2006.38 1032.4C2061.52 719.666 1852.7 421.437 1539.96 366.293C1372.77 336.813 1440.24 764.721 1316.27 861.668C1208.34 946.067 899.512 687.16 873.848 832.709C818.703 1145.45 1027.53 1443.68 1340.26 1498.82C1653 1553.97 1951.23 1345.14 2006.38 1032.4Z" fill="#568AFF"/>
</svg>
