<svg width="96" height="33" viewBox="0 0 96 33" fill="none" xmlns="http://www.w3.org/2000/svg">
<rect x="0.3" y="1.3" width="95.4" height="31.4" rx="7.7" fill="#FAFBFD" stroke="#D5D5D5" stroke-width="0.6"/>
<g opacity="0.6">
<path fill-rule="evenodd" clip-rule="evenodd" d="M24.6973 18.4239L22.2227 18.7779L22.576 16.3026L28.94 9.93861C29.5258 9.35282 30.4755 9.35282 31.0613 9.93861C31.6471 10.5244 31.6471 11.4742 31.0613 12.0599L24.6973 18.4239Z" stroke="black" stroke-width="1.2" stroke-linecap="round" stroke-linejoin="round"/>
<path d="M28.2324 10.646L30.3538 12.7673" stroke="black" stroke-width="1.2" stroke-linecap="round" stroke-linejoin="round"/>
<path d="M28.5 18.5V23.5C28.5 24.0523 28.0523 24.5 27.5 24.5H17.5C16.9477 24.5 16.5 24.0523 16.5 23.5V13.5C16.5 12.9477 16.9477 12.5 17.5 12.5H22.5" stroke="black" stroke-width="1.2" stroke-linecap="round" stroke-linejoin="round"/>
</g>
<path fill-rule="evenodd" clip-rule="evenodd" d="M76.1996 24.3999H67.7996C67.1369 24.3999 66.5996 23.8626 66.5996 23.1999V12.3999H77.3996V23.1999C77.3996 23.8626 76.8624 24.3999 76.1996 24.3999Z" stroke="#EF3826" stroke-width="1.2" stroke-linecap="round" stroke-linejoin="round"/>
<path d="M70.1988 20.8V16" stroke="#EF3826" stroke-width="1.2" stroke-linecap="round" stroke-linejoin="round"/>
<path d="M73.7984 20.8V16" stroke="#EF3826" stroke-width="1.2" stroke-linecap="round" stroke-linejoin="round"/>
<path d="M64.1992 12.4H79.7992" stroke="#EF3826" stroke-width="1.2" stroke-linecap="round" stroke-linejoin="round"/>
<path fill-rule="evenodd" clip-rule="evenodd" d="M73.8 10H70.2C69.5373 10 69 10.5373 69 11.2V12.4H75V11.2C75 10.5373 74.4627 10 73.8 10Z" stroke="#EF3826" stroke-width="1.2" stroke-linecap="round" stroke-linejoin="round"/>
<path opacity="0.700544" d="M48.5 32.7641V1" stroke="#979797" stroke-width="0.4" stroke-linecap="square"/>
</svg>
