<svg width="10" height="6" viewBox="0 0 10 6" fill="none" xmlns="http://www.w3.org/2000/svg">
<path d="M4.99935 3.92512L1.91183 0.837602C1.68402 0.609797 1.31468 0.609797 1.08687 0.837602C0.859064 1.06541 0.859064 1.43475 1.08687 1.66256L4.58687 5.16256C4.81468 5.39037 5.18402 5.39037 5.41183 5.16256L8.91183 1.66256C9.13963 1.43475 9.13963 1.06541 8.91183 0.837602C8.68402 0.609797 8.31468 0.609797 8.08687 0.837602L4.99935 3.92512Z" fill="#646464"/>
<mask id="mask0_360_2971" style="mask-type:luminance" maskUnits="userSpaceOnUse" x="0" y="0" width="10" height="6">
<path d="M4.99935 3.92512L1.91183 0.837602C1.68402 0.609797 1.31468 0.609797 1.08687 0.837602C0.859064 1.06541 0.859064 1.43475 1.08687 1.66256L4.58687 5.16256C4.81468 5.39037 5.18402 5.39037 5.41183 5.16256L8.91183 1.66256C9.13963 1.43475 9.13963 1.06541 8.91183 0.837602C8.68402 0.609797 8.31468 0.609797 8.08687 0.837602L4.99935 3.92512Z" fill="white"/>
</mask>
<g mask="url(#mask0_360_2971)">
</g>
</svg>
