<svg width="44" height="44" viewBox="0 0 44 44" fill="none" xmlns="http://www.w3.org/2000/svg">
<path fill-rule="evenodd" clip-rule="evenodd" d="M22 44C9.84974 44 0 34.1503 0 22C0 9.84974 9.84974 0 22 0C34.1503 0 44 9.84974 44 22C44 34.1503 34.1503 44 22 44Z" fill="#F9F9F9"/>
<path fill-rule="evenodd" clip-rule="evenodd" d="M21.9992 29.883L29.1902 22.383C30.4864 21.0879 30.8076 19.1083 29.9875 17.4697V17.4697C29.3758 16.2467 28.2134 15.3921 26.8635 15.1731C25.5137 14.9541 24.1408 15.3973 23.1737 16.3642L21.9992 17.538L20.8247 16.3642C19.8577 15.3973 18.4848 14.9541 17.1349 15.1731C15.785 15.3921 14.6227 16.2467 14.011 17.4697V17.4697C13.192 19.1076 13.5128 21.0857 14.8075 22.3807L21.9992 29.883Z" stroke="black" stroke-width="1.5" stroke-linecap="round" stroke-linejoin="round"/>
</svg>
