<svg width="29" height="31" viewBox="0 0 29 31" fill="none" xmlns="http://www.w3.org/2000/svg">
<path fill-rule="evenodd" clip-rule="evenodd" d="M10.0277 5C7.73472 5 5.80843 6.72411 5.55522 9.00306L4.5 18.5H1.5C0.671573 18.5 0 19.1716 0 20V21.5C0 22.3284 0.671573 23 1.5 23H22.5C23.3284 23 24 22.3284 24 21.5V20C24 19.1716 23.3284 18.5 22.5 18.5H19.5L18.4448 9.00306C18.1916 6.72411 16.2653 5 13.9723 5H10.0277Z" fill="#4880FF"/>
<rect opacity="0.3" x="9" y="24.5" width="6" height="6" rx="2.25" fill="#FF0000"/>
<path fill-rule="evenodd" clip-rule="evenodd" d="M21 16C25.4183 16 29 12.4183 29 8C29 3.58172 25.4183 0 21 0C16.5817 0 13 3.58172 13 8C13 12.4183 16.5817 16 21 16Z" fill="#F93C65"/>
<path d="M20.912 12.12C20.216 12.12 19.62 11.956 19.124 11.628C18.636 11.292 18.264 10.812 18.008 10.188C17.752 9.564 17.624 8.808 17.624 7.92C17.624 6.96 17.768 6.148 18.056 5.484C18.344 4.812 18.76 4.3 19.304 3.948C19.848 3.596 20.5 3.42 21.26 3.42C21.556 3.42 21.852 3.46 22.148 3.54C22.452 3.612 22.736 3.72 23 3.864C23.272 4 23.512 4.168 23.72 4.368L23.216 5.52C22.92 5.248 22.604 5.048 22.268 4.92C21.932 4.784 21.588 4.716 21.236 4.716C20.892 4.716 20.584 4.78 20.312 4.908C20.048 5.028 19.824 5.212 19.64 5.46C19.456 5.7 19.316 6.004 19.22 6.372C19.132 6.732 19.088 7.152 19.088 7.632V8.532H18.944C19.008 8.124 19.14 7.776 19.34 7.488C19.548 7.192 19.812 6.968 20.132 6.816C20.452 6.656 20.808 6.576 21.2 6.576C21.688 6.576 22.12 6.692 22.496 6.924C22.872 7.156 23.168 7.476 23.384 7.884C23.6 8.292 23.708 8.76 23.708 9.288C23.708 9.832 23.588 10.32 23.348 10.752C23.116 11.176 22.788 11.512 22.364 11.76C21.948 12 21.464 12.12 20.912 12.12ZM20.828 10.896C21.116 10.896 21.368 10.832 21.584 10.704C21.808 10.576 21.98 10.396 22.1 10.164C22.22 9.924 22.28 9.652 22.28 9.348C22.28 9.036 22.22 8.764 22.1 8.532C21.98 8.3 21.808 8.12 21.584 7.992C21.368 7.856 21.116 7.788 20.828 7.788C20.54 7.788 20.288 7.856 20.072 7.992C19.856 8.12 19.684 8.3 19.556 8.532C19.436 8.764 19.376 9.036 19.376 9.348C19.376 9.652 19.436 9.924 19.556 10.164C19.684 10.396 19.856 10.576 20.072 10.704C20.288 10.832 20.54 10.896 20.828 10.896Z" fill="white"/>
</svg>
