<svg width="458" height="943" viewBox="0 0 458 943" fill="none" xmlns="http://www.w3.org/2000/svg">
<g filter="url(#filter0_d_213_8051)">
<rect x="48" y="48" width="350" height="848" rx="24" fill="white"/>
</g>
<mask id="mask0_213_8051" style="mask-type:luminance" maskUnits="userSpaceOnUse" x="48" y="48" width="350" height="848">
<rect x="48" y="48" width="350" height="848" rx="24" fill="white"/>
</mask>
<g mask="url(#mask0_213_8051)">
<g opacity="0.04">
<path d="M598.511 829.428C572.028 823.747 568.868 802.503 564.856 775.578C560.342 745.517 554.774 708.118 514.248 678.293C493.934 663.381 474.473 654.031 454.712 649.711C437.056 645.865 419.502 646.102 401.144 650.481C367.038 658.647 334.837 680.424 303.639 701.431C274.448 721.136 244.254 741.552 211.752 751.612C194.298 757.056 177.646 759.068 160.843 757.885C141.984 756.524 123.426 751.139 104.166 741.375C70.511 724.332 37.0564 718.414 4.75549 723.74C-1.21317 724.746 -7.13166 726.107 -13 727.883V729.717C-7.03135 727.942 -1.0627 726.521 5.00627 725.516C37.0564 720.19 70.21 726.107 103.614 742.972C127.339 754.985 149.307 759.956 170.022 759.956C220.028 759.956 262.712 731.137 304.392 703.029C336.893 681.075 367.539 660.363 401.445 652.256C419.602 647.877 436.956 647.64 454.411 651.487C474.022 655.747 493.332 665.038 513.445 679.832C531.251 692.91 553.42 709.183 563.401 775.874C565.458 789.78 567.263 801.793 572.028 811.439C577.295 822.149 585.671 828.422 598.26 831.144C635.527 839.192 657.696 851.915 667.978 871.206C670.436 875.763 672.241 880.733 673.445 886H675C673.746 880.378 671.89 875.171 669.232 870.259C658.699 850.554 636.229 837.594 598.511 829.428Z" fill="#848484"/>
<path d="M569.335 848.853C537.791 843.292 534.832 832.113 528.413 807.742C522.796 786.507 514.321 754.328 481.172 707.657C436.589 644.838 389.298 684.115 334.535 729.602C279.02 775.741 216.082 827.972 139.254 790.351C109.816 775.918 80.1274 768.82 50.9405 769.116C29.2258 769.353 7.7117 773.73 -13 782.129V784.022C7.7117 775.563 29.1756 771.186 50.9405 770.95C79.9268 770.595 109.415 777.752 138.652 792.067C173.255 809.043 208.209 809.339 245.42 793.072C277.967 778.817 307.154 754.565 335.388 731.14C362.469 708.663 388.045 687.427 411.966 679.856C438.395 671.456 460.009 680.684 480.019 708.899C512.967 755.334 521.392 787.276 526.959 808.393C533.378 832.763 536.637 845.008 569.134 850.745C588.141 854.117 600.026 862.398 604.49 875.353C605.593 878.606 606.245 882.155 606.496 886H608C607.799 881.919 607.097 878.133 605.894 874.702C601.18 860.979 588.893 852.343 569.335 848.853Z" fill="#848484"/>
<path d="M413.467 768.919C399.53 757.99 380.83 758.345 357.919 770.159C339.721 779.493 318.815 796.033 295.754 819.189C272.191 842.936 251.135 868.928 238 886H240.005C253.14 868.928 273.695 843.645 296.706 820.489C319.668 797.392 340.423 780.97 358.471 771.695C380.881 760.176 399.079 759.704 412.565 770.337C443.898 794.97 460.543 836.557 475.232 873.24C476.987 877.553 478.641 881.806 480.346 885.941H482C480.195 881.57 478.39 877.08 476.586 872.472C461.896 835.611 445.152 793.788 413.467 768.919Z" fill="#848484"/>
<path d="M373.628 831.027C367.134 825.541 358.742 825.66 348.702 831.384C340.809 835.916 331.868 843.905 322.128 855.174C312.837 865.966 304.495 877.712 299 886H300.948C316.533 862.806 352.248 815.167 372.728 832.458C385.966 843.667 393.708 865.907 400.402 886H402C395.207 865.549 387.414 842.653 373.628 831.027Z" fill="#848484"/>
<path d="M126.296 830.087C113.405 826.198 100.062 822.192 88.0736 817.42C58.3284 805.459 23.868 815.534 0.192241 826.08C-4.4727 828.143 -8.88683 830.323 -13 832.503V834.447C-8.73635 832.208 -4.12157 829.91 0.744007 827.73C24.169 817.302 58.2782 807.345 87.572 819.128C99.5604 823.959 112.953 827.966 125.895 831.854C154.988 840.574 182.476 848.823 184.382 863.788C185.185 870.092 181.473 877.457 173.146 886H175.353C183.228 877.457 186.689 870.033 185.887 863.493C183.83 847.35 157.195 839.396 126.296 830.087Z" fill="#848484"/>
<path d="M107.009 855.443C97.0996 853.406 85.0387 853.526 73.9287 855.802C53.36 859.997 13.1236 873.418 -13 882.465V884.322C13.1236 875.275 53.6103 861.794 74.2289 857.54C85.1888 855.323 97.0496 855.143 106.808 857.181C120.921 860.116 125.876 866.288 127.577 871.021C129.129 875.275 128.728 880.308 126.426 886H128.128C130.33 880.128 130.58 874.856 128.928 870.302C125.575 861.075 115.166 857.121 107.009 855.443Z" fill="#848484"/>
<path d="M48.7407 529.106C71.4291 547.115 86.2368 572.943 99.2375 595.751C113.995 621.579 126.795 643.912 146.773 647.526C148.63 647.882 150.537 648 152.445 648C167.855 648 186.176 637.515 209.417 615.418C226.835 598.831 241.341 583.784 254.141 570.455C281.147 542.316 300.673 521.997 322.257 515.421C344.293 508.668 368.487 515.777 405.732 539.887C436.151 559.614 472.442 573.18 505.22 577.09C520.479 578.926 534.333 578.571 545.326 575.964C556.921 573.239 565.053 568.323 569.42 561.273C575.393 551.617 576.849 533.667 549.693 502.922C517.217 466.134 480.273 461.691 441.17 457.011C415.269 453.931 388.465 450.672 361.409 437.817C330.79 423.304 304.237 398.067 280.193 360.806C262.424 333.259 241.693 320.226 220.159 323.129C205.502 325.084 191.096 334.207 177.342 350.143C163.538 366.256 151.09 388.471 140.448 416.195C132.517 436.751 123.783 447.296 113.593 448.362C91.5575 450.672 66.0582 406.953 41.4623 364.656C29.1643 343.508 16.4648 321.707 4.36769 306.068C-1.90676 297.952 -7.62907 291.969 -13 288V290.192C3.91594 303.343 22.2875 334.859 40.2074 365.663C52.5555 386.871 65.3554 408.849 77.6534 424.844C90.8046 441.905 102.048 450.258 111.937 450.258C112.539 450.258 113.142 450.198 113.744 450.139C124.486 449.014 133.672 438.173 141.803 416.965C152.395 389.418 164.693 367.381 178.396 351.446C191.899 335.747 206.004 326.802 220.309 324.906C241.241 322.122 261.57 334.918 278.988 361.931C303.182 399.489 329.987 424.844 360.807 439.476C388.063 452.45 414.968 455.649 440.969 458.788C479.821 463.468 516.514 467.852 548.639 504.225C575.042 534.141 573.837 551.202 568.215 560.266C559.983 573.476 536.492 579.104 505.37 575.372C472.794 571.462 436.703 557.956 406.435 538.347C368.838 514 344.343 506.891 321.855 513.763C299.92 520.457 280.293 540.895 253.137 569.211C240.337 582.54 225.881 597.587 208.463 614.115C182.663 638.64 163.137 648.711 146.974 645.808C127.648 642.372 115.049 620.335 100.442 594.803C87.3411 571.877 72.4832 545.93 49.5438 527.684C30.5196 512.578 12.399 504.995 -4.51693 504.995C-7.37809 504.995 -10.189 505.232 -13 505.647V507.424C6.02415 504.403 26.755 511.689 48.7407 529.106Z" fill="#848484"/>
<path d="M15.1252 702.928C38.3372 703.342 64.3067 708.852 87.2179 713.651C120.056 720.582 145.925 726.033 149.133 713.473C153.946 694.633 138.304 679.052 112.335 653.281C93.7353 634.797 70.5233 611.811 45.7069 578.753C27.0571 553.93 8.45736 542.674 -9.49062 545.399C-10.5936 545.577 -11.7466 545.813 -13 546.11V547.946C-11.7968 547.65 -10.5434 547.354 -9.29008 547.176C8.15656 544.569 26.2549 555.589 44.604 579.938C69.5206 613.114 92.7326 636.16 111.382 654.703C136.851 680 152.242 695.285 147.73 712.999C144.922 724.018 118.301 718.39 87.5187 711.933C54.2799 704.942 15.2756 696.707 -12.9499 703.816V705.653C-5.02869 703.639 4.34637 702.691 15.1252 702.928Z" fill="#848484"/>
<path d="M81.0552 694C94.049 694 101.345 691.212 102.745 685.576C105.843 673.295 80.0057 651.166 64.2632 639.063C42.0238 621.917 15.5364 605.78 1.29319 600.619C-3.45455 598.898 -8.25226 597.712 -12.95 597V598.78C-8.40219 599.492 -3.75441 600.678 0.8434 602.339C14.9867 607.442 41.3241 623.46 63.4136 640.546C89.1513 660.421 103.295 677.032 101.246 685.042C99.2465 692.873 81.455 694.297 51.1194 689.076C26.5312 684.864 0.893375 677.566 -13 672.939V674.778C0.993328 679.465 26.4812 686.643 50.8695 690.856C63.1137 692.932 73.1089 694 81.0552 694Z" fill="#848484"/>
<path fill-rule="evenodd" clip-rule="evenodd" d="M158.414 615C156.962 615 155.559 614.822 154.206 614.408C141.932 610.793 132.162 600.544 125.95 584.725C119.688 568.61 117.584 547.814 119.938 524.53C122.092 503.557 128.355 482.762 138.174 464.395C173.094 398.928 202.101 363.024 224.395 357.692C231.559 355.974 238.122 357.455 243.784 362.136C265.015 379.577 278.864 396.555 291.079 411.529L291.528 412.08L291.637 412.214C310.523 435.376 325.458 453.692 358.16 464.277C378.851 470.972 388.621 477.133 387.969 483.176C387.468 487.857 380.455 491.589 367.078 494.315C354.102 496.922 335.365 498.521 312.921 498.877C295.987 499.173 278.402 506.934 259.114 522.753C242.281 536.617 226.349 554.687 212.271 570.684C191.48 594.323 173.294 615 158.414 615ZM139.477 465.343C129.808 483.473 123.595 504.031 121.491 524.767C119.187 547.696 121.241 568.136 127.403 583.955C133.365 599.3 142.783 609.253 154.607 612.689C155.859 613.045 157.162 613.223 158.465 613.223C172.692 613.223 190.677 592.784 211.217 569.442L211.219 569.439C225.297 553.384 241.279 535.254 258.262 521.331C277.801 505.335 295.687 497.396 312.921 497.099C335.315 496.744 353.952 495.144 366.828 492.537C383.41 489.16 386.266 485.072 386.517 482.939C387.218 476.185 366.677 468.779 357.81 465.936C324.644 455.153 309.564 436.668 290.526 413.265L290.32 413.013C278.097 398.026 264.255 381.055 242.982 363.557C239.074 360.358 234.766 358.758 230.056 358.758C228.353 358.758 226.55 358.995 224.746 359.41C202.903 364.683 174.196 400.29 139.477 465.343Z" fill="#848484"/>
<path d="M688 518.396C684.435 514.017 680.368 509.519 675.748 505.022C658.173 487.919 635.878 473.834 609.466 463.123C576.476 449.749 536.958 441.582 492.017 438.86C466.308 437.321 416.998 431.936 375.371 413.058C331.535 393.233 307.232 363.939 303.215 326.005C298.545 282.095 303.114 254.872 317.626 240.255C333.493 224.277 362.215 223.567 405.399 238.243C435.376 248.422 459.629 262.388 479.112 273.632C498.344 284.758 513.559 293.516 527.116 295.055C541.829 296.712 553.328 289.67 564.375 272.212C571.404 261.086 576.978 250.552 581.899 241.261C591.791 222.502 598.972 208.95 610.671 203.919C623.024 198.593 639.745 203.091 666.659 218.951C674.342 223.448 681.422 228.479 688 233.686V231.556C681.623 226.526 674.744 221.732 667.362 217.353C640.046 201.256 622.974 196.759 610.169 202.203C597.967 207.47 590.737 221.2 580.644 240.255C575.773 249.487 570.199 259.962 563.22 271.087C540.523 307.009 517.676 293.812 479.815 271.975C460.282 260.672 435.929 246.647 405.851 236.468C362.115 221.673 332.941 222.442 316.672 238.835C301.758 253.866 297.038 281.621 301.758 326.183C305.876 364.827 330.48 394.594 374.869 414.715C416.697 433.652 466.207 439.037 491.967 440.635C536.757 443.298 576.074 451.465 608.914 464.78C635.125 475.432 657.269 489.398 674.693 506.324C679.815 511.295 684.234 516.266 688 521V518.396Z" fill="#848484"/>
<path d="M688 480.686C677.368 471.25 664.579 461.755 650.085 452.794C608.909 427.275 560.361 409.531 513.469 402.885C465.974 396.119 431.318 388.701 404.437 379.443C370.082 367.693 348.416 353.035 338.185 334.757C331.264 322.354 329.759 308.052 333.621 292.147C336.53 280.397 341.846 272.623 349.92 268.409C377.254 254.048 429.663 284.136 475.904 310.663C492.806 320.395 508.804 329.534 522.396 335.825C545.316 346.448 559.408 348.821 569.539 343.658C579.319 338.673 584.936 327.161 592.66 311.197C597.324 301.583 602.59 290.723 610.013 278.735C617.937 265.917 627.967 259.211 639.853 258.795C656.103 258.261 673.706 269.596 688 282.059V279.863C665.782 260.694 649.784 256.718 639.853 257.015C627.516 257.43 617.084 264.374 608.859 277.667C601.386 289.714 596.12 300.693 591.406 310.307C576.26 341.463 569.339 355.705 522.947 334.163C509.406 327.873 493.458 318.734 476.556 309.06C430.014 282.355 377.254 252.089 349.319 266.807C340.893 271.198 335.125 279.625 332.166 291.732C328.154 308.111 329.709 322.947 336.881 335.825C347.363 354.4 369.279 369.295 404.035 381.164C431.017 390.422 465.773 397.84 513.318 404.606C560.01 411.252 608.357 428.937 649.382 454.336C664.077 463.476 677.217 473.267 688 483V480.686Z" fill="#848484"/>
<path fill-rule="evenodd" clip-rule="evenodd" d="M515.846 367.075C516.019 367.22 516.115 367.3 516.131 367.313C522.095 372.56 524.149 376.864 522.395 380.166C520.391 383.644 513.927 385 505.408 385C493.732 385 478.097 382.465 464.366 379.222C430.942 371.381 399.071 358.057 379.126 343.613C356.676 327.341 349.059 309.713 357.127 292.616C359.282 288.017 362.89 285.069 367.801 283.772C383.636 279.586 413.453 292.439 456.348 321.858C486.493 342.49 512.827 364.546 515.846 367.075ZM502.551 383.113C516.432 383.526 520.14 380.755 521.093 379.104C522.696 376.216 518.787 371.912 515.229 368.787C513.927 367.667 415.708 284.774 374.165 284.774C371.96 284.774 369.956 285.01 368.102 285.482C363.642 286.661 360.384 289.314 358.43 293.441C354.421 301.931 354.471 310.538 358.63 319.087C362.389 326.869 369.555 334.592 379.878 342.08C399.672 356.406 431.343 369.671 464.617 377.454C478.898 380.814 492.379 382.819 502.551 383.113Z" fill="#848484"/>
<path fill-rule="evenodd" clip-rule="evenodd" d="M464.115 352.363C464.478 352.625 464.68 352.771 464.702 352.784C464.745 352.824 464.793 352.868 464.845 352.916C465.712 353.714 467.752 355.592 466.711 357.417C466.058 358.59 464.05 359 461.339 359C453.909 359 441.308 355.599 438.095 354.719C421.378 350.029 405.865 343.285 396.628 336.659C387.34 329.975 384.127 323.466 387.039 317.309C387.742 315.843 388.947 314.846 390.553 314.377C397.079 312.384 411.538 318.306 433.577 331.851C448.073 340.759 461.221 350.269 464.115 352.363ZM438.396 353.019C455.465 357.769 464.602 357.886 465.456 356.42C465.506 356.303 465.405 355.599 463.799 354.25C462.393 353.195 411.086 315.784 393.364 315.784C392.411 315.784 391.607 315.902 390.854 316.136C389.599 316.488 388.796 317.192 388.294 318.189C385.834 323.349 388.846 329.036 397.33 335.135C406.417 341.702 421.779 348.387 438.396 353.019Z" fill="#848484"/>
<path fill-rule="evenodd" clip-rule="evenodd" d="M168.256 570.507C163.255 572.994 159.155 574 155.804 574C149.004 574 145.253 569.797 143.203 565.475C129.851 537.473 160.005 447.309 201.01 412.144C213.262 401.665 224.263 397.402 233.665 399.534C241.416 401.31 248.067 407.289 253.467 417.353C258.768 427.181 261.318 438.547 260.968 450.269C260.618 461.932 257.368 473.121 251.617 482.593L250.067 485.139L249.976 485.288C230.902 516.677 211.194 549.11 168.256 570.507ZM201.91 413.624C183.358 429.549 165.106 458.972 153.104 492.302C141.853 523.56 138.452 551.918 144.503 564.587C148.553 573.053 156.304 574.474 167.656 568.79C210.262 547.537 229.864 515.272 248.817 484.014L250.367 481.468C255.968 472.292 259.118 461.458 259.468 450.151C259.818 438.784 257.318 427.773 252.217 418.3C247.066 408.71 240.716 402.967 233.415 401.31C231.914 400.954 230.364 400.777 228.814 400.777C220.863 400.777 211.862 405.099 201.91 413.624Z" fill="#848484"/>
<path fill-rule="evenodd" clip-rule="evenodd" d="M182.632 529.805C179.523 531.347 176.966 532 174.91 532C170.999 532 168.843 529.686 167.64 527.254C164.18 520.017 166.286 504.711 173.105 487.33C180.225 469.296 190.905 452.922 201.735 443.668C208.905 437.558 215.323 435.066 220.889 436.312C225.452 437.32 229.413 440.821 232.572 446.753C238.839 458.499 238.438 473.448 231.469 484.898C220.387 503.11 208.304 516.991 182.632 529.805ZM202.638 445.151C192.058 454.228 181.528 470.304 174.509 488.101C167.991 504.711 165.834 519.72 168.993 526.424C171.099 530.873 175.512 531.466 182.08 528.203C207.451 515.568 219.334 501.864 230.265 483.889C236.884 473.033 237.285 458.855 231.318 447.761C228.36 442.304 224.8 439.041 220.638 438.092C219.786 437.914 218.933 437.795 218.031 437.795C213.468 437.795 208.354 440.287 202.638 445.151Z" fill="#848484"/>
<path d="M194.021 498C194.665 498 195.459 497.825 196.401 497.359C203.739 493.749 207.16 489.79 210.333 484.607C212.416 481.23 212.564 476.746 210.68 473.31C209.689 471.505 208.499 470.457 207.061 470.108C205.375 469.7 203.392 470.457 201.26 472.262C194.764 477.794 189.211 491.536 191.542 496.37C191.889 497.068 192.583 498 194.021 498Z" fill="#848484" stroke="#575757" stroke-width="5"/>
<path d="M687.849 834.339C673.496 833.568 659.545 831.373 647.199 827.815C630.939 823.129 617.289 816.07 606.65 806.936C593.601 795.725 585.02 781.252 581.055 763.814C575.535 739.317 566.803 716.184 555.812 696.847C542.914 674.13 527.106 656.632 508.738 644.769C474.963 622.882 433.862 620.806 386.637 638.6C329.426 660.132 284.912 682.73 252.392 699.279C210.888 720.336 188.004 731.962 182.785 719.209C182.333 718.082 182.283 716.896 182.684 715.591C185.645 705.923 210.186 692.755 238.641 677.57C259.819 666.241 283.858 653.37 302.778 639.727C324.659 623.949 336.151 609.655 337.907 596.071C340.367 576.972 346.891 563.567 356.727 557.339C367.918 550.28 383.225 552.119 402.295 562.796C437.324 582.37 522.84 605.74 574.782 605.74C592.698 605.74 606.65 602.952 613.124 596.249C617.038 592.216 618.142 586.937 616.386 580.531C610.614 559.356 617.289 537.468 631.893 529.698C650.21 519.971 670.435 534.087 687.849 556.686V553.721C681.024 545.061 674.099 538.299 667.123 533.435C654.326 524.478 641.579 522.58 631.291 528.097C615.984 536.223 608.958 559 614.98 581.065C616.536 586.759 615.583 591.326 612.17 594.885C601.38 606.036 566.501 606.985 516.417 597.436C473.157 589.191 426.535 574.303 402.998 561.135C383.476 550.221 367.717 548.442 356.125 555.737C345.837 562.203 339.062 576.082 336.502 595.775C332.688 625.254 280.245 653.37 238.089 675.909C208.178 691.924 184.541 704.558 181.38 714.938C180.827 716.718 180.878 718.379 181.53 719.921C184.34 726.801 191.216 727.988 203.913 723.776C215.606 719.862 232.167 711.498 253.094 700.881C285.564 684.391 330.079 661.792 387.189 640.261C434.012 622.645 474.713 624.661 508.136 646.252C526.253 657.996 541.911 675.316 554.658 697.737C565.548 716.955 574.23 739.91 579.7 764.17C583.715 781.964 592.497 796.793 605.847 808.241C616.637 817.494 630.488 824.612 646.948 829.416C659.445 833.034 673.547 835.288 688 836V834.339H687.849Z" fill="#848484"/>
<path d="M42.3302 500.966C61.361 510.161 79.5359 519 91.8203 519C95.1432 519 98.0129 518.347 100.379 516.924C103.702 514.907 105.817 511.288 106.723 506.246C108.888 494.381 98.1639 482.932 81.9022 465.61C65.7915 448.466 43.7399 425.034 24.256 389.915C11.0654 366.127 -1.42042 350.822 -12.9497 344V345.958C-1.82319 352.78 10.2095 367.729 22.9974 390.864C42.6323 426.22 64.7342 449.712 80.8953 466.915C96.7542 483.822 107.277 494.975 105.263 505.831C104.407 510.398 102.594 513.483 99.6743 515.263C89.2527 521.729 66.748 510.814 42.9344 499.246C27.2264 491.653 10.9647 483.763 -3.13219 480.203C-6.65641 479.314 -9.97924 478.72 -13 478.424V480.203C-10.0799 480.5 -6.85779 481.034 -3.43426 481.924C10.5116 485.542 26.6726 493.373 42.3302 500.966Z" fill="#848484"/>
<path d="M34.5811 469C39.7573 469 43.0422 467.467 44.386 464.459C47.6709 456.911 37.7665 442.522 14.8718 421.529C4.51941 412.094 -6.23114 403.366 -13 398V400.064C9.64583 417.932 48.2682 451.722 43.092 463.634C41.997 466.169 39.0107 467.29 34.83 467.29C23.8306 467.29 4.32033 459.86 -13 451.958V453.845C-9.26717 455.555 -5.33526 457.265 -1.35357 458.916C14.822 465.639 26.8666 469 34.5811 469Z" fill="#848484"/>
<path fill-rule="evenodd" clip-rule="evenodd" d="M250.792 607.873C253.513 602.475 256.385 597.61 259.408 593.339C269.031 579.695 283.491 572.577 298.051 574.238C306.617 575.246 310.949 578.805 311 584.916C311.101 605.144 258.854 647.381 235.325 650.347C231.899 650.822 229.279 651 227.314 651C223.082 651 221.671 650.11 221.167 648.805C220.16 646.076 223.787 642.161 229.833 635.636C236.282 628.695 245.099 619.204 250.792 607.873ZM281.123 622.763C298.706 608.051 309.64 593.517 309.589 584.975C309.539 579.933 305.659 576.966 298.051 576.077C296.691 575.899 295.331 575.839 293.97 575.839C281.274 575.839 269.081 582.602 260.667 594.466C257.695 598.619 254.873 603.483 252.203 608.763C246.461 620.227 237.601 629.769 231.117 636.752L230.942 636.941L230.713 637.188C226.451 641.797 222.085 646.519 222.679 648.034C223.031 648.983 225.5 649.814 235.274 648.568C246.056 647.203 264.043 637.059 281.123 622.763Z" fill="#848484"/>
<path d="M36.0491 290.689C47.345 315.237 59.4441 340.497 71.242 358.938C84.2448 379.157 95.5406 389 105.832 389C105.933 389 106.033 389 106.134 389C116.375 388.822 125.412 379.098 133.746 359.412C151.267 318.083 172.001 292.824 193.739 286.479C208.6 282.151 223.862 286.42 239.073 299.287C250.771 309.189 259.105 312.45 264.426 309.308C272.308 304.683 272.76 287.428 273.262 267.505C273.814 245.625 274.417 220.78 285.512 209.396C290.683 204.119 297.611 202.162 306.698 203.348C330.494 206.55 353.136 202.28 372.164 191.133C390.237 180.519 404.244 164.332 412.628 144.29C420.61 125.256 422.92 103.792 419.405 82.3269C417.949 73.3734 415.489 64.5978 412.126 56H410.419C422.167 85.2917 422.819 116.125 411.323 143.519C403.089 163.205 389.333 179.096 371.561 189.532C352.785 200.561 330.394 204.712 306.899 201.569C297.51 200.324 289.98 202.458 284.558 208.032C272.961 219.891 272.358 245.151 271.756 267.386C271.304 285.946 270.852 303.497 263.774 307.647C258.954 310.494 251.172 307.232 239.927 297.745C224.313 284.582 208.65 280.194 193.338 284.641C171.148 291.163 150.062 316.72 132.39 358.522C124.307 377.556 115.723 386.925 106.134 387.103C106.033 387.103 105.933 387.103 105.832 387.103C83.9937 387.103 60.0465 339.014 37.3544 289.681C23.448 259.441 6.52928 238.688 -13 227.659V229.615C6.02724 240.763 22.4941 261.16 36.0491 290.689Z" fill="#848484"/>
<path d="M54.8004 215C63.476 215 71.0985 213.522 77.3671 210.506C91.6593 203.647 98.7803 189.632 98.5296 168.7C98.2789 148.181 102.943 132.925 112.772 122.104C136.993 95.2582 189.147 99.8705 244.411 104.838C252.535 105.547 260.96 106.316 269.234 106.966C277.308 107.617 284.73 107.912 291.55 107.912C322.692 107.912 340.344 101.349 344.206 88.2807C346.914 79.0561 342.4 67.8802 335.179 57H333.223C340.645 67.8211 345.359 78.8787 342.802 87.7485C338.388 102.768 313.716 108.681 269.385 105.251C261.11 104.601 252.685 103.832 244.561 103.123C188.997 98.1557 136.492 93.4843 111.769 120.862C101.639 132.097 96.8246 147.767 97.0753 168.818C97.326 188.923 90.5059 202.464 76.8656 208.969C59.3137 217.365 30.7794 213.522 -1.51606 198.443C-5.37747 196.669 -9.18874 194.718 -13 192.707V194.659C-9.38933 196.61 -5.72851 198.443 -2.06769 200.099C19.0447 209.915 38.7028 215 54.8004 215Z" fill="#848484"/>
<path d="M26.1424 158.882C44.1851 157.578 59.4712 146.383 71.6499 125.592L73.6547 122.157C88.4396 96.9233 95.8571 84.2474 106.833 78.9756C117.809 73.7038 132.694 75.5993 162.364 79.4495C165.973 79.9233 169.832 80.3972 173.891 80.9303C209.024 85.4321 234.484 86.9129 251.725 85.4913C268.314 84.1289 277.737 80.1603 281.345 72.993C283.55 68.6098 283.45 63.2787 281.646 57H280.092C281.896 63.0418 282.097 68.0767 280.042 72.1045C276.734 78.6794 267.462 82.4704 251.625 83.7735C234.484 85.1359 209.125 83.6551 174.042 79.1533C169.982 78.6202 166.123 78.1463 162.515 77.6725C132.594 73.7631 117.608 71.8084 106.232 77.3171C94.8547 82.8258 87.337 95.6202 72.4017 121.15L70.397 124.585C58.4688 144.902 43.5836 155.861 26.0422 157.105C17.0209 157.756 3.94001 155.92 -13 146.561V148.516C1.88515 156.631 13.8133 159 22.6843 159C23.8871 159 25.0398 158.941 26.1424 158.882Z" fill="#848484"/>
<path d="M46.4767 116.706C53.6239 112.765 58.522 106.059 60.971 96.7647C64.6196 83.2353 65.4193 69.5882 64.8195 57H63.3201C63.9199 69.4118 63.1202 82.8824 59.5216 96.2353C57.1725 105.059 52.5243 111.412 45.777 115.118C29.7333 124 4.74305 116.706 -13 109.529V111.412C-1.05468 116.235 14.0394 121 27.6341 121C34.4814 120.941 40.9789 119.765 46.4767 116.706Z" fill="#848484"/>
<path d="M356.454 99.719C346.464 122.882 302.487 119.742 301.985 119.683C277.336 119.683 254.444 117.609 234.263 115.714C204.242 112.929 178.287 110.56 159.11 116.425C148.969 119.505 141.087 124.777 135.063 132.479C128.537 140.772 124.119 151.968 121.509 166.601C112.824 215.533 90.0821 221.397 71.7584 226.077C60.7139 228.921 51.1755 231.35 48.0128 242.961C45.1513 253.565 48.4646 274.654 56.5471 296.691C65.1819 320.328 76.9292 338.633 87.9736 345.623C91.538 347.874 95.1023 349 98.4659 349C104.892 349 110.966 344.972 116.288 337.093C124.37 325.126 130.947 312.094 137.322 299.476C149.22 275.898 159.461 255.579 175.375 251.017C185.165 248.233 196.561 251.669 210.115 261.681C228.088 274.891 240.538 279.038 248.219 274.358C257.757 268.552 258.711 250.603 259.715 231.527C261.07 205.936 262.476 179.456 284.766 180.641C289.886 180.877 294.806 181.055 299.575 181.055C347.769 181.055 379.045 167.608 392.55 140.95C403.193 120.038 400.482 94.8021 396.365 77.3856C394.407 69.0328 391.947 61.687 389.789 56H388.132C390.341 61.687 392.901 69.329 394.909 77.9187C402.189 108.901 396.917 128.806 391.244 140.061C376.686 168.733 340.842 181.825 284.816 178.923C274.123 178.389 266.994 183.721 263.028 195.273C259.564 205.284 258.862 218.613 258.209 231.527C257.255 250.07 256.301 267.545 247.516 272.877C240.337 277.261 228.389 273.114 210.868 260.259C196.912 250.01 185.165 246.456 174.974 249.418C158.457 254.157 148.015 274.773 135.967 298.705C129.641 311.264 123.065 324.238 115.033 336.086C107.201 347.637 98.3153 350.303 88.5761 344.142C77.8328 337.33 66.2863 319.38 57.8022 296.099C50.0209 274.773 46.6071 253.683 49.318 243.612C52.2297 232.949 60.9147 230.698 71.9592 227.914C81.1964 225.544 91.6384 222.878 100.976 214.466C111.769 204.751 118.948 189.23 122.864 167.015C127.734 139.469 138.979 124.422 159.361 118.202C167.895 115.595 177.886 114.647 188.98 114.647C202.434 114.647 217.646 116.069 234.012 117.55C254.243 119.387 277.135 121.519 301.784 121.519C301.784 121.519 301.784 121.519 301.835 121.519C301.935 121.519 313.281 122.408 325.681 120.275C342.548 117.432 353.292 110.797 357.709 100.608C362.479 89.5297 359.416 74.6013 348.573 56.0592H346.765C357.81 74.4236 361.023 89.0558 356.454 99.719Z" fill="#848484"/>
<path d="M359.52 121.394C351.287 133.559 326.386 138.603 287.58 135.992C258.111 134.034 230.8 128.278 230.549 128.218C230.399 128.159 213.732 124.658 194.956 128.99C183.861 131.482 174.222 136.17 166.24 142.935C156.25 151.361 148.87 162.992 144.352 177.471C135.616 205.54 125.827 224.707 114.381 236.1C104.44 246.01 94.7514 248.621 85.7149 250.461C72.5116 253.131 68.0436 263.101 66.6379 270.993C63.8265 286.422 70.6039 307.25 81.1464 315.618C84.008 317.873 86.9197 319 89.7311 319C92.3416 319 94.902 318.051 97.3117 316.092C107.202 308.141 117.343 292.831 128.086 276.69C148.518 245.892 169.654 214.085 190.889 230.048C194.002 232.362 197.014 234.676 199.876 236.931C215.438 248.977 227.788 258.531 235.57 254.021C240.188 251.351 242.799 244.289 243.753 231.709C245.711 205.718 249.325 186.135 260.621 175.098C268.653 167.205 280.099 164.298 295.662 166.078C339.238 171.122 367.954 161.983 381.057 139.018C391.549 120.623 389.742 96.708 386.378 79.8551C384.471 70.3012 381.86 61.8748 379.802 56H378.195C380.254 61.8154 382.964 70.4199 384.922 80.2705C388.186 96.7674 389.943 120.148 379.802 138.009C367.05 160.381 338.786 169.223 295.813 164.298C279.848 162.458 268.051 165.544 259.667 173.733C248.02 185.186 244.255 205.124 242.247 231.59C241.343 243.34 238.983 250.164 234.917 252.479C227.889 256.514 215.89 247.257 200.729 235.507C197.817 233.252 194.805 230.938 191.693 228.623C181.602 221.028 170.708 222.927 158.408 234.439C147.665 244.408 137.122 260.312 126.931 275.681C116.288 291.762 106.198 306.894 96.5084 314.727C90.8355 319.297 85.5141 316.982 81.9999 314.193C71.9092 306.182 65.433 286.184 68.0938 271.408C69.4492 264.05 73.6161 254.734 85.9659 252.241C95.2032 250.342 105.093 247.672 115.334 237.465C126.981 225.834 136.922 206.43 145.757 178.065C150.175 163.882 157.354 152.548 167.043 144.359C174.824 137.772 184.313 133.203 195.157 130.711C202.185 129.108 208.912 128.574 214.585 128.574C223.822 128.574 230.148 129.939 230.248 129.939C230.499 129.998 257.91 135.755 287.479 137.713C327.34 140.383 351.989 135.28 360.675 122.462C369.259 109.822 371.267 92.8509 366.448 73.2089C364.791 66.5034 362.632 60.5693 360.725 56H359.018C360.976 60.5099 363.285 66.6814 364.992 73.6837C368.255 87.0354 369.962 106.025 359.52 121.394Z" fill="#848484"/>
<path fill-rule="evenodd" clip-rule="evenodd" d="M199.812 144.898C205.14 141.805 211.065 141.151 216.542 143.114C221.869 145.017 225.902 149.002 228.491 154.95C236.258 172.853 229.387 204.317 224.607 221.446C223.363 225.967 221.819 228.346 219.778 228.881C219.479 228.941 219.18 229 218.882 229C215.565 229 211.756 224.355 207.014 218.572L206.932 218.472C202.401 212.941 197.273 206.696 191.099 202.294C180.792 194.919 175.714 186.652 176.012 177.611C176.56 161.849 193.837 148.407 199.812 144.898ZM219.479 227.156C220.923 226.74 222.168 224.718 223.213 220.911C234.167 181.536 230.383 163.217 227.147 155.842C224.757 150.37 221.023 146.682 216.093 144.898C214.152 144.184 212.16 143.827 210.119 143.827C206.832 143.827 203.546 144.72 200.459 146.504C194.684 149.894 178.004 162.801 177.506 177.67C177.207 185.997 182.087 193.789 191.895 200.748C198.16 205.167 203.545 211.746 207.905 217.073L208.027 217.223L208.084 217.292C212.74 222.973 216.752 227.867 219.479 227.156Z" fill="#848484"/>
<path fill-rule="evenodd" clip-rule="evenodd" d="M202.5 172.962C204.226 171.95 206.149 171.711 207.924 172.366C209.7 173.022 211.031 174.332 211.869 176.357C214.335 182.074 212.215 191.9 210.735 197.26C210.489 198.273 209.996 199.643 208.911 199.94C208.763 200 208.664 200 208.516 200C207.295 200 206.122 198.539 204.567 196.602L204.522 196.546C203.19 194.878 201.662 192.972 199.837 191.662C196.533 189.28 194.906 186.541 195.004 183.503C195.189 177.811 201.565 173.583 202.408 173.024C202.465 172.987 202.497 172.966 202.5 172.962ZM208.615 198.154C208.763 198.154 209.059 197.677 209.354 196.665C210.439 192.556 212.856 182.431 210.637 177.131C209.946 175.582 208.96 174.57 207.579 174.094C207.037 173.915 206.445 173.796 205.902 173.796C204.966 173.796 204.078 174.034 203.19 174.57C201.859 175.404 196.681 179.275 196.533 183.622C196.434 185.885 197.815 188.089 200.626 190.114C202.598 191.543 204.275 193.628 205.607 195.295C205.674 195.376 205.742 195.458 205.811 195.542C206.859 196.811 208.106 198.321 208.615 198.154Z" fill="#848484"/>
<path d="M360.575 865.844C359.284 864.397 357.644 863.818 355.757 864.049C349.349 864.86 340.607 875.566 334 885H335.937C342.246 876.087 350.293 866.538 355.906 865.786C357.346 865.612 358.539 866.017 359.532 867.117C362.959 870.879 366.784 877.766 370.261 885H372C368.374 877.361 364.251 869.953 360.575 865.844Z" fill="#848484"/>
<path fill-rule="evenodd" clip-rule="evenodd" d="M367.4 587.147C376.95 580.458 393.499 580.278 416.598 586.669C432.557 591.117 446.27 597.298 448.238 598.185C448.304 598.215 448.358 598.239 448.397 598.256C463.246 601.541 465.096 604.468 464.996 606.618C464.896 609.544 460.896 613.546 430.698 618.922C411.948 622.266 389.599 625.014 373.3 626.985L369.25 627.462C366.3 627.821 363.65 628 361.25 628C352.101 628 346.751 625.372 345.351 620.236C342.801 610.978 354.551 596.166 367.4 587.147ZM430.398 617.189C460.047 611.874 463.346 607.992 463.396 606.558C463.446 605.841 462.396 603.213 447.947 599.988L447.797 599.929C447.789 599.925 447.745 599.905 447.665 599.869C446.175 599.189 432.335 592.88 416.198 588.401C407.449 585.953 396.999 583.802 387.499 583.802C380.05 583.802 373.15 585.176 368.1 588.7C361.75 593.179 355.801 598.973 351.751 604.647C347.501 610.679 345.701 615.995 346.701 619.698C348.251 625.193 355.951 627.283 369 625.671L373.1 625.253C374.305 625.102 375.542 624.949 376.808 624.792C392.676 622.821 413.08 620.287 430.398 617.189Z" fill="#848484"/>
<path fill-rule="evenodd" clip-rule="evenodd" d="M378.02 211.819C377.623 207.135 383.036 201.632 394.061 195.368C401.311 191.27 409.902 192.558 415.961 198.705C420.728 203.564 425.893 210.472 423.311 216.209C421.324 220.658 415.017 223 406.625 223C401.013 223 394.458 221.946 387.605 219.78C381.397 217.848 378.269 215.214 378.02 211.819ZM387.952 218.083C403.794 223.117 419.04 221.888 421.97 215.39C423.658 211.701 421.225 206.374 414.968 200.052C411.491 196.598 407.171 194.783 402.801 194.783C400.02 194.783 397.239 195.485 394.657 196.949C384.576 202.686 379.163 207.896 379.461 211.643C379.659 214.16 382.589 216.385 387.952 218.083Z" fill="#848484"/>
<path d="M536.15 866.695C510.023 862.798 494.678 836.699 475.321 803.633C469.905 794.422 464.288 784.856 457.97 774.936C442.123 750.077 424.371 735.138 405.264 730.533C383.55 725.337 359.68 733.367 334.355 754.388C306.523 777.475 266.254 814.616 231.702 849.099C222.024 858.783 209.387 871.655 197 885H199.207C209.035 874.49 220.218 862.916 232.655 850.457C267.157 816.033 307.376 778.892 335.157 755.864C382.347 716.716 423.267 723.506 456.716 776.058C462.984 785.919 468.601 795.485 474.017 804.696C493.625 838.117 509.12 864.452 535.899 868.467C554.905 871.301 565.788 876.852 568.395 885H570C567.543 875.848 556.159 869.707 536.15 866.695Z" fill="#848484"/>
<path d="M393.305 798.278C383.8 793.388 374.043 793.978 364.287 799.987C340.096 814.833 318.168 832.39 299.108 852.244C287.389 864.439 278.538 875.633 272 885H274.012C288.898 863.968 317.666 830.563 364.94 801.519C374.295 795.804 383.599 795.215 392.651 799.869C410.908 809.236 425.191 838.104 433.942 860.727C437.311 869.329 440.127 877.754 442.391 885H444C441.687 877.577 438.82 868.916 435.35 860.02C422.475 826.734 408.292 805.937 393.305 798.278Z" fill="#848484"/>
<path fill-rule="evenodd" clip-rule="evenodd" d="M157.986 678.832C156.216 674.561 156.519 668.393 161.476 664.953C168.961 659.793 179.076 662.165 183.072 666.199C184.791 667.919 185.398 669.935 184.741 671.833C183.426 675.866 178.368 680.018 169.77 684.11C168.506 684.703 167.241 685 166.078 685C162.336 685 159.402 682.153 157.986 678.832ZM169.214 682.45C177.306 678.594 182.212 674.68 183.375 671.181C183.881 669.698 182.971 668.393 182.06 667.563C179.936 665.428 175.738 663.826 171.288 663.826C168.202 663.826 165.016 664.597 162.234 666.495C158.087 669.342 157.784 674.324 159.352 678.001C160.919 681.679 164.662 684.644 169.214 682.45Z" fill="#848484"/>
<path fill-rule="evenodd" clip-rule="evenodd" d="M237.796 824.568C235.849 830.529 214.732 843.536 207.743 846.969C206.246 847.752 204.848 848.053 203.45 847.993C199.157 847.993 195.812 844.681 194.164 840.706C192.068 835.648 192.467 828.361 198.158 824.327C208.143 817.221 232.155 816.077 236.948 821.015C237.946 821.978 238.246 823.243 237.796 824.568ZM198.907 825.893C194.015 829.385 193.665 835.467 195.512 839.923C197.359 844.379 201.803 847.993 207.144 845.283C215.98 840.887 234.801 828.602 236.349 823.905C236.498 823.484 236.548 823.002 235.949 822.4C231.656 818.004 208.043 819.389 198.907 825.893Z" fill="#848484"/>
<path fill-rule="evenodd" clip-rule="evenodd" d="M325.872 489C318.439 489 310.5 488.126 304.836 485.62C296.746 482.065 296.341 476.762 297.454 472.915C298.617 468.778 300.993 465.747 304.584 463.941C311.006 460.735 321.119 461.493 334.62 466.272C344.582 469.827 352.824 474.314 352.925 474.372C357.173 476.82 357.325 479.151 356.768 480.666C355.1 485.037 344.582 487.601 335.328 488.534C332.446 488.825 329.21 489 325.872 489ZM305.19 465.514C302.005 467.088 299.881 469.768 298.87 473.44C297.605 477.985 299.78 481.54 305.443 483.988C312.118 486.902 323.546 487.951 335.227 486.785C345.998 485.678 354.291 482.881 355.403 479.967C355.959 478.452 353.987 476.936 352.268 475.946C351.762 475.654 329.816 463.766 314.04 463.766C310.753 463.766 307.719 464.232 305.19 465.514Z" fill="#848484"/>
<path d="M597.511 828.428C571.028 822.747 567.868 801.503 563.856 774.578C559.342 744.517 553.774 707.118 513.248 677.293C492.934 662.381 473.473 653.031 453.712 648.711C436.056 644.865 418.502 645.102 400.144 649.481C366.038 657.647 333.837 679.424 302.639 700.431C273.448 720.136 243.254 740.552 210.752 750.612C193.298 756.056 176.646 758.068 159.843 756.885C140.984 755.524 122.426 750.139 103.166 740.375C69.511 723.332 36.0564 717.414 3.75549 722.74C-2.21317 723.746 -8.13166 725.107 -14 726.883V728.717C-8.03135 726.942 -2.0627 725.521 4.00627 724.516C36.0564 719.19 69.21 725.107 102.614 741.972C126.339 753.985 148.307 758.956 169.022 758.956C219.028 758.956 261.712 730.137 303.392 702.029C335.893 680.075 366.539 659.363 400.445 651.256C418.602 646.877 435.956 646.64 453.411 650.487C473.022 654.747 492.332 664.038 512.445 678.832C530.251 691.91 552.42 708.183 562.401 774.874C564.458 788.78 566.263 800.793 571.028 810.439C576.295 821.149 584.671 827.422 597.26 830.144C634.527 838.192 656.696 850.915 666.978 870.206C669.436 874.763 671.241 879.733 672.445 885H674C672.746 879.378 670.89 874.171 668.232 869.259C657.699 849.554 635.229 836.535 597.511 828.428Z" fill="#848484"/>
<path d="M568.335 847.853C536.791 842.292 533.832 831.113 527.413 806.742C521.796 785.507 513.321 753.328 480.172 706.657C435.589 643.838 388.298 683.115 333.535 728.602C278.02 774.741 215.082 826.972 138.254 789.351C108.816 774.918 79.1274 767.82 49.9405 768.116C28.2258 768.353 6.7117 772.73 -14 781.129V783.022C6.7117 774.563 28.1756 770.186 49.9405 769.95C78.9268 769.595 108.415 776.752 137.652 791.067C172.255 808.043 207.209 808.339 244.42 792.072C276.967 777.817 306.154 753.565 334.388 730.14C361.469 707.663 387.045 686.427 410.966 678.856C437.395 670.456 459.009 679.684 479.019 707.899C511.967 754.334 520.392 786.276 525.959 807.393C532.378 831.763 535.637 844.008 568.134 849.745C587.141 853.117 599.026 861.398 603.49 874.353C604.593 877.606 605.245 881.155 605.496 885H607C606.799 880.919 606.097 877.133 604.894 873.702C600.18 859.979 587.893 851.343 568.335 847.853Z" fill="#848484"/>
<path d="M412.467 767.919C398.53 756.99 379.83 757.345 356.919 769.159C338.721 778.493 317.815 795.033 294.754 818.189C271.191 841.936 250.135 867.928 237 885H239.005C252.14 867.928 272.695 842.645 295.706 819.489C318.668 796.392 339.423 779.97 357.471 770.695C379.881 759.176 398.079 758.704 411.565 769.337C442.898 793.97 459.543 835.557 474.232 872.24C475.987 876.553 477.641 880.806 479.346 884.941H481C479.195 880.57 477.39 876.08 475.586 871.472C460.896 834.611 444.152 792.788 412.467 767.919Z" fill="#848484"/>
<path d="M371.628 831.027C365.134 825.541 356.742 825.66 346.702 831.384C338.809 835.916 329.868 843.905 320.128 855.174C310.837 865.966 302.495 877.712 297 886H298.948C314.533 862.806 350.248 815.167 370.728 832.458C383.966 843.667 391.708 865.907 398.402 886H400C393.207 865.549 385.364 842.653 371.628 831.027Z" fill="#848484"/>
<path d="M125.296 829.087C112.405 825.198 99.062 821.192 87.0736 816.42C57.3284 804.459 22.868 814.534 -0.807759 825.08C-5.4727 827.143 -9.88683 829.323 -14 831.503V833.447C-9.73635 831.208 -5.12157 828.91 -0.255993 826.73C23.169 816.302 57.2782 806.345 86.572 818.128C98.5604 822.959 111.953 826.966 124.895 830.854C153.988 839.574 181.476 847.823 183.382 862.788C184.185 869.092 180.473 876.457 172.146 885H174.353C182.228 876.457 185.689 869.033 184.887 862.493C182.78 846.35 156.145 838.337 125.296 829.087Z" fill="#848484"/>
<path d="M106.009 855.443C96.0996 853.406 84.0387 853.526 72.9287 855.802C52.36 859.997 12.1236 873.418 -14 882.465V884.322C12.1236 875.275 52.6103 861.794 73.2289 857.54C84.1888 855.323 96.0496 855.143 105.808 857.181C119.921 860.116 124.876 866.288 126.577 871.021C128.129 875.275 127.728 880.308 125.426 886H127.128C129.33 880.128 129.58 874.856 127.928 870.302C124.575 861.075 114.166 857.121 106.009 855.443Z" fill="#848484"/>
<path d="M47.5905 528.145C70.2421 546.148 85.0258 571.968 98.0054 594.768C112.739 620.588 125.518 642.914 145.464 646.526C147.318 646.882 149.222 647 151.127 647C166.512 647 184.803 636.518 208.006 614.429C225.396 597.847 239.879 582.805 252.658 569.481C279.62 541.351 299.114 521.038 320.663 514.465C342.663 507.714 366.818 514.82 404.003 538.923C434.373 558.643 470.605 572.205 503.33 576.113C518.565 577.949 532.396 577.594 543.371 574.988C554.948 572.264 563.066 567.349 567.426 560.302C573.39 550.649 574.843 532.705 547.731 501.97C515.307 465.194 478.423 460.752 439.384 456.074C413.525 452.994 386.764 449.737 359.752 436.886C329.183 422.378 302.672 397.15 278.667 359.9C260.927 332.363 240.23 319.334 218.731 322.236C204.097 324.19 189.715 333.31 175.983 349.241C162.202 365.348 149.773 387.556 139.149 415.271C131.231 435.821 122.511 446.362 112.338 447.428C90.338 449.737 64.8799 406.033 40.3239 363.749C28.0459 342.608 15.367 320.815 3.28943 305.181C-2.97486 296.949 -8.68789 290.968 -14 287V289.191C2.88852 302.338 21.2303 333.843 39.1211 364.638C51.4493 385.839 64.2284 407.809 76.5064 423.799C89.6363 440.854 100.862 449.204 110.734 449.204C111.336 449.204 111.937 449.145 112.539 449.086C123.263 447.961 132.434 437.123 140.552 415.923C151.127 388.385 163.405 366.355 177.086 350.425C190.567 334.732 204.649 325.789 218.931 323.894C239.829 321.111 260.125 333.902 277.515 360.907C301.67 398.453 328.431 423.799 359.201 438.426C386.413 451.395 413.274 454.593 439.234 457.732C478.022 462.41 514.656 466.793 546.729 503.154C573.089 533.06 571.886 550.116 566.273 559.176C558.055 572.382 534.601 578.008 503.53 574.278C471.006 570.369 434.974 556.867 404.755 537.265C367.219 512.925 342.764 505.819 320.312 512.688C298.412 519.38 278.818 539.811 251.706 568.119C238.927 581.443 224.494 596.485 207.104 613.008C181.345 637.525 161.851 647.592 145.714 644.69C126.42 641.256 113.842 619.226 99.2583 593.702C86.1785 570.784 71.3446 544.845 48.4424 526.605C29.4491 511.504 11.3578 503.924 -5.53069 503.924C-8.3872 503.924 -11.1936 504.161 -14 504.575V506.352C4.99331 503.45 25.6404 510.675 47.5905 528.145Z" fill="#848484"/>
<path d="M14.1252 702.922C37.3372 703.336 63.3067 708.848 86.2179 713.648C119.056 720.582 144.925 726.034 148.133 713.47C152.946 694.625 137.304 679.038 111.335 653.259C92.7353 634.768 69.5233 611.774 44.7069 578.705C26.0571 553.933 7.45736 542.673 -10.4906 545.399C-11.5936 545.577 -12.7466 545.814 -14 546.11V547.947C-12.7968 547.651 -11.5434 547.355 -10.2901 547.177C7.15656 544.569 25.2549 555.592 43.604 579.95C68.5206 613.137 91.7326 636.191 110.382 654.74C135.851 680.046 151.242 695.336 146.73 713.056C143.922 724.079 117.301 718.449 86.5187 711.989C53.2799 704.936 14.2255 696.699 -14 703.87V705.707C-5.97856 703.633 3.34637 702.744 14.1252 702.922Z" fill="#848484"/>
<path d="M80.0457 693C93.0451 693 100.345 690.212 101.745 684.576C104.845 672.295 78.9957 650.166 63.2465 638.063C40.9975 620.917 14.4987 604.78 0.249348 599.619C-4.50043 597.898 -9.30022 596.712 -14 596V597.78C-9.45021 598.492 -4.80042 599.678 -0.200631 601.339C13.9487 606.442 40.2975 622.46 62.3965 639.546C88.1453 659.421 102.295 676.032 100.245 684.042C98.2449 691.873 80.4457 693.297 50.0971 688.076C25.5482 683.923 -0.100636 676.626 -13.95 671.998V673.837C0.0493565 678.524 25.5482 685.703 49.9471 689.915C62.0965 691.991 72.1461 693 80.0457 693Z" fill="#848484"/>
<path fill-rule="evenodd" clip-rule="evenodd" d="M156.414 614C154.962 614 153.559 613.822 152.206 613.408C139.932 609.853 130.162 599.544 123.95 583.725C117.688 567.61 115.584 546.814 117.938 523.53C120.092 502.557 126.355 481.762 136.174 463.395C171.094 397.928 200.101 362.024 222.395 356.692C229.559 354.974 236.122 356.455 241.784 361.136C263.015 378.577 276.864 395.555 289.079 410.529L289.528 411.08L289.637 411.214C308.523 434.376 323.458 452.692 356.16 463.277C376.851 469.972 386.621 476.133 385.969 482.176C385.468 486.857 378.455 490.589 365.078 493.315C352.102 495.922 333.365 497.521 310.921 497.877C293.987 498.173 276.402 505.934 257.114 521.753C240.281 535.617 224.349 553.687 210.271 569.684C189.48 593.323 171.294 614 156.414 614ZM137.477 464.343C127.808 482.473 121.595 503.031 119.491 523.767C117.187 546.696 119.241 567.195 125.403 583.014C131.365 598.359 140.783 608.312 152.607 611.749C153.859 612.104 155.162 612.282 156.465 612.282C170.692 612.282 188.677 591.843 209.217 568.501L209.219 568.499C223.297 552.443 239.279 534.313 256.262 520.39C275.801 504.394 293.687 496.455 310.921 496.159C333.315 495.803 351.952 494.203 364.828 491.597C381.41 488.219 384.266 484.131 384.517 481.999C385.218 475.244 364.677 467.839 355.81 464.995C322.644 454.212 307.564 435.727 288.526 412.325L288.32 412.072C276.097 397.085 262.255 380.114 240.982 362.617C237.074 359.417 232.766 357.818 228.056 357.818C226.353 357.818 224.55 358.055 222.746 358.469C200.903 363.683 172.196 399.29 137.477 464.343Z" fill="#848484"/>
<path d="M608.886 201.23C596.695 206.502 589.471 220.242 579.387 239.313C574.521 248.552 568.952 259.035 561.979 270.17C539.303 306.12 516.477 292.913 478.651 271.058C459.136 259.746 434.804 245.709 404.754 235.523C361.058 220.716 331.911 221.486 315.657 237.892C300.757 252.935 296.041 280.712 300.757 325.31C304.871 363.984 329.453 393.775 373.801 413.912C415.59 432.864 465.055 438.254 490.791 439.853C535.541 442.518 574.822 450.692 607.632 464.017C633.819 474.678 655.943 488.656 673.351 505.594C679.07 511.162 683.936 516.67 688 522V519.394C684.137 514.537 679.672 509.444 674.455 504.351C656.896 487.234 634.622 473.138 608.234 462.418C575.274 449.033 535.792 440.86 490.892 438.136C465.206 436.596 415.941 431.206 374.353 412.313C330.556 392.472 306.275 363.155 302.262 325.191C297.596 281.245 302.162 254.001 316.66 239.372C332.513 223.381 361.209 222.67 404.353 237.359C434.303 247.545 458.534 261.523 477.999 272.776C497.213 283.91 512.414 292.676 525.959 294.216C540.658 295.874 552.146 288.826 563.183 271.354C570.207 260.22 575.775 249.678 580.692 240.379C590.575 221.604 597.749 208.042 609.438 203.007C621.779 197.677 638.485 202.178 665.374 218.051C673.552 222.907 681.077 228.238 688 233.864V231.614C681.278 226.165 673.953 221.071 666.027 216.392C638.685 200.283 621.628 195.722 608.886 201.23Z" fill="#848484"/>
<path d="M638.634 257.02C626.306 257.435 615.881 264.371 607.662 277.65C600.195 289.683 594.932 300.65 590.221 310.253C575.086 341.375 568.17 355.602 521.811 334.083C508.279 327.8 492.342 318.671 475.453 309.008C428.944 282.333 376.22 252.1 348.305 266.801C339.885 271.188 334.122 279.606 331.165 291.699C327.156 308.06 328.709 322.879 335.876 335.743C346.3 354.416 368.252 369.236 402.933 381.092C429.896 390.339 464.627 397.749 512.138 404.507C558.798 411.146 607.111 428.811 648.107 454.183C663.392 463.667 676.974 473.863 688 484V481.629C677.125 471.788 663.894 461.948 648.758 452.582C607.612 427.092 559.098 409.368 512.239 402.728C464.778 395.971 430.147 388.561 403.284 379.313C368.953 367.576 347.303 352.934 337.079 334.676C330.163 322.287 328.659 308 332.518 292.114C335.425 280.376 340.737 272.611 348.806 268.402C376.12 254.056 428.493 284.111 474.701 310.609C491.59 320.33 507.578 329.459 521.16 335.743C544.063 346.354 558.146 348.725 568.27 343.568C578.043 338.588 583.656 327.088 591.374 311.142C596.035 301.539 601.297 290.691 608.714 278.717C616.633 265.912 626.656 259.214 638.534 258.799C655.273 258.265 673.466 270.358 687.95 283.222V280.969C665.197 260.814 648.758 256.665 638.634 257.02Z" fill="#848484"/>
<path fill-rule="evenodd" clip-rule="evenodd" d="M514.826 366.956C514.999 367.102 515.096 367.183 515.112 367.196C521.074 372.496 523.179 376.842 521.375 380.117C519.371 383.63 512.907 385 504.389 385C492.715 385 477.082 382.44 463.353 379.165C429.932 371.245 398.065 357.788 378.123 343.2C355.676 326.766 348.06 308.962 356.127 291.694C358.281 287.05 361.889 284.073 366.799 282.763C382.633 278.595 412.445 291.516 455.336 321.288C485.477 342.126 511.808 364.402 514.826 366.956ZM501.533 383.095C515.412 383.511 519.12 380.713 520.072 379.046C521.726 376.187 517.817 371.781 514.21 368.625C512.907 367.494 414.7 283.775 373.163 283.775C370.958 283.775 368.954 284.013 367.1 284.49C362.64 285.681 359.384 288.36 357.43 292.528C353.421 301.102 353.471 309.796 357.63 318.43C361.388 326.29 368.553 334.09 378.875 341.652C398.666 356.121 430.333 369.519 463.603 377.378C477.883 380.772 491.362 382.797 501.533 383.095Z" fill="#848484"/>
<path fill-rule="evenodd" clip-rule="evenodd" d="M463.143 351.36C463.506 351.623 463.708 351.769 463.73 351.782C464.483 352.427 466.842 354.48 465.687 356.416C465.035 357.589 463.027 358 460.317 358C452.889 358 440.292 354.598 437.08 353.718C420.367 349.025 404.859 342.279 395.625 335.651C386.34 328.964 383.128 322.453 386.039 316.293C386.741 314.827 387.946 313.83 389.552 313.36C396.076 311.425 410.581 317.291 432.613 330.841C447.105 339.753 460.25 349.266 463.143 351.36ZM437.431 351.958C454.495 356.709 463.63 356.827 464.483 355.36C464.583 355.302 464.433 354.598 462.827 353.19C461.421 352.134 410.129 314.71 392.412 314.71C391.459 314.71 390.656 314.827 389.903 315.062C388.648 315.414 387.845 316.117 387.343 317.115C384.884 322.277 387.896 327.967 396.377 334.067C405.461 340.637 420.819 347.324 437.431 351.958Z" fill="#848484"/>
<path fill-rule="evenodd" clip-rule="evenodd" d="M167.256 569.507C162.255 571.994 158.155 573 154.804 573C148.004 573 144.303 568.856 142.203 564.475C128.851 536.473 159.005 446.309 200.01 411.144C212.262 400.665 223.263 396.402 232.665 398.534C240.416 400.31 247.067 406.289 252.467 416.353C257.768 426.181 260.318 437.547 259.968 449.269C259.618 460.932 256.368 472.121 250.617 481.593L249.067 484.139L248.976 484.288C229.902 515.677 210.194 548.11 167.256 569.507ZM200.91 412.683C182.358 428.608 164.106 458.031 152.104 491.361C140.853 522.56 137.502 550.977 143.503 563.646C147.553 572.112 155.304 573.533 166.656 567.849C209.262 546.596 228.864 514.331 247.817 483.073L249.367 480.527C254.968 471.351 258.118 460.517 258.468 449.21C258.818 437.843 256.318 426.832 251.217 417.36C246.066 407.769 239.716 402.027 232.415 400.369C230.914 400.014 229.364 399.836 227.814 399.836C219.863 399.836 210.862 404.158 200.91 412.683Z" fill="#848484"/>
<path fill-rule="evenodd" clip-rule="evenodd" d="M181.632 528.805C178.523 530.347 175.966 531 173.91 531C169.949 531 167.793 528.686 166.64 526.254C163.18 519.017 165.286 503.711 172.105 486.33C179.225 468.296 189.905 451.922 200.735 442.668C207.905 436.558 214.323 434.066 219.889 435.312C224.452 436.32 228.413 439.821 231.572 445.753C237.839 457.499 237.438 472.448 230.469 483.898C219.387 502.11 207.304 515.991 181.632 528.805ZM201.638 444.151C191.058 453.228 180.528 469.304 173.509 487.101C166.94 503.652 164.784 518.72 167.993 525.424C170.099 529.873 174.512 530.466 181.08 527.203C206.451 514.568 218.334 500.864 229.265 482.889C235.884 472.033 236.285 457.855 230.318 446.761C227.36 441.304 223.8 438.041 219.638 437.092C218.786 436.914 217.933 436.795 217.031 436.795C212.468 436.795 207.354 439.287 201.638 444.151Z" fill="#848484"/>
<path d="M665.831 533.433C653.042 524.479 640.302 522.581 630.021 528.096C614.723 536.221 607.702 558.993 613.72 581.054C615.275 586.747 614.322 591.314 610.911 594.872C600.128 606.021 565.27 606.97 515.215 597.422C471.982 589.179 425.387 574.294 401.865 561.128C382.354 550.216 366.606 548.437 355.02 555.732C344.738 562.196 337.967 576.073 335.409 595.761C331.597 625.235 279.185 653.345 237.055 675.88C207.162 691.892 183.539 704.524 180.379 714.902C179.828 716.681 179.878 718.342 180.53 719.884C183.338 726.763 190.21 727.949 202.899 723.738C214.585 719.824 231.136 711.463 252.051 700.847C284.501 684.361 328.989 661.766 386.066 640.239C432.861 622.626 473.536 624.642 506.94 646.229C525.046 657.971 540.694 675.287 553.434 697.704C564.317 716.919 572.994 739.869 578.461 764.124C582.473 781.915 591.251 796.741 604.592 808.187C615.375 817.438 629.218 824.554 645.669 829.358C658.509 833.094 673.104 835.348 688 836V834.221C673.204 833.569 658.76 831.315 646.02 827.579C629.77 822.894 616.128 815.837 605.495 806.704C592.454 795.496 583.878 781.026 579.916 763.59C574.398 739.098 565.671 715.97 554.688 696.637C541.798 673.923 525.999 656.429 507.642 644.568C473.887 622.685 432.81 620.669 385.614 638.401C328.437 659.928 283.95 682.522 251.449 699.068C209.971 720.121 187.1 731.744 181.884 718.994C181.433 717.867 181.382 716.681 181.784 715.377C184.743 705.71 209.269 692.545 237.707 677.363C258.872 666.036 282.897 653.167 301.805 639.527C323.673 623.753 335.158 609.461 336.914 595.88C339.371 576.784 345.891 563.382 355.722 557.155C366.906 550.098 382.204 551.936 401.263 562.611C436.271 582.181 521.736 605.546 573.646 605.546C591.552 605.546 605.495 602.759 611.965 596.058C615.877 592.025 616.98 586.747 615.225 580.342C609.457 559.171 616.128 537.288 630.723 529.519C649.481 519.556 670.245 534.619 687.95 558.222V555.198C680.627 546.006 673.254 538.652 665.831 533.433Z" fill="#848484"/>
<path d="M41.3574 499.966C60.3802 509.161 78.5474 518 90.8267 518C94.1482 518 97.0167 517.347 99.3819 515.924C102.703 513.907 104.817 510.288 105.723 505.246C107.887 493.381 97.1676 481.932 80.9127 464.61C64.8088 447.466 42.7665 424.034 23.2907 388.915C10.0553 365.127 -2.37495 349.822 -13.9497 343V344.958C-2.82788 351.78 9.19977 366.729 21.9823 389.864C41.609 425.22 63.7016 448.712 79.8559 465.915C95.7082 482.822 106.226 493.975 104.213 504.831C103.358 509.398 101.546 512.483 98.6271 514.263C88.2098 520.729 65.7146 509.814 41.9109 498.246C26.2096 490.653 9.95464 482.763 -4.13632 479.203C-7.65907 478.314 -10.9805 477.72 -14 477.424V479.203C-11.0812 479.5 -7.86037 480.034 -4.43827 480.924C9.55204 484.542 25.7566 492.373 41.3574 499.966Z" fill="#848484"/>
<path fill-rule="evenodd" clip-rule="evenodd" d="M248.792 607.873C251.513 602.475 254.385 597.61 257.408 593.339C266.981 579.695 281.491 572.577 296.051 574.238C304.617 575.246 308.949 578.805 309 584.916C309.101 605.144 256.854 647.381 233.325 650.347C229.899 650.822 227.279 651 225.314 651C221.082 651 219.671 650.11 219.167 648.805C218.16 646.076 221.787 642.161 227.833 635.636C234.282 628.695 243.099 619.204 248.792 607.873ZM279.072 622.763C296.656 608.051 307.589 593.517 307.539 584.975C307.539 579.933 303.609 576.907 296.001 576.077C294.641 575.899 293.28 575.839 291.92 575.839C279.224 575.839 267.031 582.602 258.617 594.466C255.644 598.619 252.823 603.483 250.153 608.763C244.411 620.227 235.551 629.769 229.066 636.752L228.891 636.941L228.663 637.188C224.4 641.797 220.034 646.519 220.628 648.034C220.981 648.983 223.45 649.814 233.224 648.568C244.006 647.203 261.993 637.059 279.072 622.763Z" fill="#848484"/>
<path d="M34.9361 289.689C46.2059 314.237 58.2772 339.497 70.0479 357.938C83.0207 378.157 94.2905 388 104.559 388C104.659 388 104.759 388 104.859 388C115.077 387.822 124.093 378.098 132.408 358.412C149.888 317.083 170.575 291.824 192.263 285.479C207.089 281.151 222.316 285.42 237.492 298.287C249.163 308.189 257.478 311.45 262.787 308.308C270.651 303.683 271.102 286.428 271.602 266.505C272.153 244.625 272.754 219.78 283.824 208.396C288.983 203.119 295.895 201.162 304.961 202.348C328.703 205.55 351.293 201.28 370.276 190.133C388.308 179.519 402.282 163.332 410.647 143.29C418.611 124.256 420.915 102.792 417.409 81.3269C415.956 72.3734 413.502 63.5978 410.146 55H408.443C420.164 84.2917 420.815 115.125 409.345 142.519C401.13 162.205 387.406 178.096 369.675 188.532C350.942 199.561 328.603 203.712 305.162 200.569C295.795 199.324 288.282 201.458 282.872 207.032C271.302 218.891 270.701 244.151 270.1 266.386C269.649 284.946 269.198 302.497 262.136 306.647C257.327 309.494 249.564 306.232 238.344 296.745C222.767 283.582 207.139 279.194 191.862 283.641C169.723 290.163 148.686 315.72 131.055 357.522C122.991 376.556 114.426 385.925 104.859 386.103C104.759 386.103 104.659 386.103 104.559 386.103C82.7702 386.103 58.8782 338.014 36.2384 288.681C22.364 258.619 5.53437 237.865 -14 226.837V228.793C4.93331 239.763 21.3622 260.16 34.9361 289.689Z" fill="#848484"/>
<path d="M53.8004 214C62.476 214 70.0985 212.522 76.3671 209.506C90.6593 202.647 97.7803 188.632 97.5296 167.7C97.2789 147.181 101.943 131.925 111.772 121.104C135.993 94.2582 188.147 98.8705 243.411 103.838C251.535 104.547 259.96 105.316 268.234 105.966C276.308 106.617 283.73 106.912 290.55 106.912C321.692 106.912 339.344 100.349 343.206 87.2807C345.914 78.0561 341.4 66.8802 334.179 56H332.223C339.645 66.8211 344.359 77.8787 341.802 86.7485C337.388 101.768 312.716 107.681 268.385 104.251C260.11 103.601 251.685 102.832 243.561 102.123C187.997 97.1557 135.492 92.4843 110.769 119.862C100.639 131.097 95.8246 146.767 96.0753 167.818C96.326 187.923 89.5059 201.464 75.8656 207.969C58.3137 216.365 29.7794 212.522 -2.51606 197.443C-6.37747 195.669 -10.1887 193.718 -14 191.707V193.659C-10.3893 195.61 -6.72851 197.443 -3.06769 199.099C18.0948 208.915 37.7529 214 53.8004 214Z" fill="#848484"/>
<path d="M25.1424 157.882C43.1851 156.578 58.4712 145.383 70.6499 124.592L72.6547 121.157C87.4396 95.9233 94.8571 83.2474 105.833 77.9756C116.809 72.7038 131.694 74.5993 161.364 78.4495C164.973 78.9233 168.832 79.3972 172.891 79.9303C208.074 84.3728 233.535 85.9129 250.725 84.4913C267.314 83.1289 276.737 79.1603 280.345 71.993C282.55 67.6098 282.45 62.2787 280.646 56H279.092C280.896 62.0418 281.097 67.0767 279.042 71.1045C275.734 77.561 266.462 81.4111 250.625 82.7143C233.484 84.1359 208.125 82.6551 173.042 78.1533C168.982 77.6202 165.123 77.1463 161.515 76.6725C131.594 72.7631 116.608 70.8084 105.232 76.3171C93.8547 81.8258 86.337 94.6202 71.4017 120.15L69.397 123.585C57.4688 143.902 42.5836 154.861 25.0422 156.105C16.0209 156.756 2.94001 154.92 -14 145.561V147.516C0.885154 155.631 12.8133 158 21.6843 158C22.9372 158 24.09 157.941 25.1424 157.882Z" fill="#848484"/>
<path d="M45.4767 115.761C52.6239 111.816 57.522 105.104 59.971 95.8013C63.6196 82.2594 64.4193 68.5998 63.8195 56H62.3201C62.9199 68.4232 62.1202 81.9062 58.5216 95.2714C56.1725 104.103 51.5243 110.462 44.777 114.171C28.7333 123.003 3.79303 115.761 -14 108.519V110.403C-2.05468 115.231 13.0394 120 26.6341 120C33.4814 120 39.9789 118.764 45.4767 115.761Z" fill="#848484"/>
<path d="M355.454 99.719C345.514 122.882 301.487 119.742 300.985 119.683C276.336 119.683 253.444 117.609 233.263 115.714C203.242 112.929 177.287 110.56 158.11 116.425C147.969 119.505 140.087 124.777 134.063 132.479C127.537 140.772 123.119 151.968 120.509 166.601C111.824 215.533 89.0821 221.397 70.7584 226.077C59.7139 228.921 50.1755 231.35 47.0128 242.961C44.1513 253.565 47.4646 274.654 55.5471 296.691C64.1819 320.328 75.9292 338.633 86.9736 345.623C90.538 347.874 94.1023 349 97.4659 349C103.892 349 109.966 344.972 115.288 337.093C123.37 325.126 129.947 312.094 136.322 299.476C148.22 275.898 158.461 255.579 174.375 251.017C184.165 248.233 195.561 251.669 209.115 261.681C227.088 274.891 239.538 279.038 247.219 274.358C256.757 268.552 257.711 250.603 258.715 231.527C260.07 205.936 261.476 179.456 283.766 180.641C288.886 180.877 293.806 181.055 298.575 181.055C346.769 181.055 378.045 167.608 391.55 140.95C402.193 120.038 399.482 94.8021 395.365 77.3856C393.407 69.0328 390.947 61.687 388.789 56H387.132C389.341 61.687 391.901 69.329 393.909 77.9187C401.189 108.901 395.917 128.806 390.244 140.061C375.686 168.733 339.842 181.825 283.816 178.923C273.123 178.389 265.994 183.721 262.028 195.273C258.564 205.284 257.862 218.613 257.209 231.527C256.255 250.07 255.301 267.545 246.516 272.877C239.337 277.261 227.389 273.114 209.868 260.259C195.912 250.01 184.165 246.456 173.974 249.418C157.457 254.157 147.015 274.773 134.967 298.705C128.641 311.264 122.065 324.238 114.033 336.086C106.201 347.637 97.3153 350.303 87.5761 344.142C76.8328 337.33 65.2863 319.38 56.8022 296.099C49.0209 274.773 45.6071 253.683 48.318 243.612C51.2297 232.949 59.9147 230.698 70.9592 227.914C80.1964 225.544 90.6384 222.878 99.976 214.466C110.769 204.751 117.948 189.23 121.864 167.015C126.734 139.469 137.979 124.422 158.361 118.202C166.895 115.595 176.886 114.647 187.98 114.647C201.434 114.647 216.646 116.069 233.012 117.55C253.243 119.387 276.135 121.519 300.784 121.519C300.784 121.519 300.784 121.519 300.835 121.519C300.935 121.519 312.281 122.408 324.681 120.275C341.548 117.432 352.292 110.797 356.709 100.608C361.479 89.5297 358.416 74.6013 347.573 56.0592H345.765C356.81 74.3643 360.023 89.0558 355.454 99.719Z" fill="#848484"/>
<path d="M358.52 120.394C350.287 132.559 325.386 137.603 286.58 134.992C257.111 133.034 229.8 127.278 229.549 127.218C229.399 127.159 212.732 123.658 193.956 127.99C182.861 130.482 173.222 135.17 165.24 141.935C155.25 150.361 147.87 161.992 143.352 176.471C134.616 204.54 124.827 223.707 113.381 235.1C103.44 245.01 93.7514 247.621 84.7149 249.461C71.5116 252.131 67.0436 262.101 65.6379 269.993C62.8265 285.422 69.6039 306.25 80.1464 314.618C83.008 316.873 85.9197 318 88.7311 318C91.3416 318 93.902 317.051 96.3117 315.092C106.202 307.141 116.343 291.831 127.086 275.69C147.518 244.892 168.654 213.085 189.889 229.048C193.002 231.362 196.014 233.676 198.876 235.931C214.438 247.977 226.788 257.531 234.57 253.021C239.188 250.351 241.799 243.289 242.753 230.709C244.711 204.718 248.325 185.135 259.621 174.098C267.653 166.205 279.099 163.298 294.662 165.078C338.238 170.122 366.954 160.983 380.057 138.018C390.549 119.623 388.742 95.708 385.378 78.8551C383.471 69.3012 380.86 60.8748 378.802 55H377.195C379.254 60.8154 381.964 69.4199 383.922 79.2705C387.186 95.7674 388.943 119.148 378.802 137.009C366.05 159.381 337.786 168.223 294.813 163.298C278.848 161.458 267.051 164.544 258.667 172.733C247.02 184.186 243.255 204.124 241.247 230.59C240.343 242.34 237.983 249.164 233.917 251.479C226.889 255.514 214.89 246.257 199.729 234.507C196.817 232.252 193.805 229.938 190.693 227.623C180.602 220.028 169.708 221.927 157.408 233.439C146.665 243.408 136.122 259.312 125.931 274.681C115.288 290.762 105.198 305.894 95.5084 313.727C89.8355 318.297 84.5141 315.982 80.9999 313.193C70.9092 305.182 64.433 285.184 67.0938 270.408C68.4492 263.05 72.6161 253.734 84.9659 251.241C94.2032 249.342 104.093 246.672 114.334 236.465C125.981 224.834 135.922 205.43 144.757 177.065C149.175 162.882 156.354 151.548 166.043 143.359C173.824 136.772 183.313 132.203 194.157 129.711C201.185 128.108 207.912 127.574 213.585 127.574C222.822 127.574 229.148 128.939 229.248 128.939C229.499 128.998 256.91 134.755 286.479 136.713C326.34 139.383 350.989 134.28 359.675 121.462C368.259 108.882 370.267 91.8509 365.448 72.2683C363.791 65.5627 361.632 59.6286 359.725 55.0593H358.018C359.976 59.5693 362.285 65.7407 363.992 72.743C367.255 85.9761 368.912 105.025 358.52 120.394Z" fill="#848484"/>
<path fill-rule="evenodd" clip-rule="evenodd" d="M197.812 143.898C203.14 140.805 209.065 140.151 214.542 142.114C219.919 144.017 223.952 148.002 226.491 153.95C234.258 171.853 227.387 203.317 222.607 220.446C221.363 224.967 219.819 227.346 217.778 227.881C217.479 227.941 217.18 228 216.882 228C213.565 228 209.756 223.355 205.014 217.572L204.932 217.472C200.401 211.941 195.273 205.696 189.099 201.294C178.792 193.919 173.714 185.652 174.012 176.611C174.56 160.849 191.837 147.407 197.812 143.898ZM217.479 226.156C218.923 225.74 220.168 223.718 221.213 219.911C232.217 180.536 228.433 162.217 225.147 154.842C222.757 149.37 219.023 145.682 214.093 143.898C212.152 143.184 210.16 142.827 208.119 142.827C204.832 142.827 201.546 143.72 198.459 145.504C192.684 148.894 176.004 161.801 175.506 176.67C175.207 184.997 180.087 192.789 189.895 199.748C196.16 204.167 201.545 210.746 205.905 216.073L206.027 216.223L206.084 216.292C210.74 221.973 214.752 226.867 217.479 226.156Z" fill="#848484"/>
<path fill-rule="evenodd" clip-rule="evenodd" d="M200.5 171.962C202.226 170.95 204.149 170.711 205.924 171.366C207.65 172.022 208.982 173.332 209.869 175.357C212.335 181.074 210.215 190.9 208.735 196.26C208.489 197.273 207.996 198.643 206.911 198.94C206.763 199 206.664 199 206.516 199C205.295 199 204.122 197.539 202.567 195.602L202.522 195.546C201.19 193.878 199.662 191.972 197.837 190.662C194.533 188.28 192.906 185.541 193.004 182.503C193.189 176.811 199.565 172.583 200.408 172.024C200.465 171.987 200.497 171.966 200.5 171.962ZM206.565 197.154C206.713 197.154 207.009 196.677 207.305 195.665C208.439 191.556 210.806 181.431 208.587 176.131C207.897 174.582 206.911 173.57 205.53 173.094C204.987 172.915 204.396 172.796 203.853 172.796C202.916 172.796 202.029 173.034 201.141 173.57C199.809 174.404 194.632 178.275 194.484 182.622C194.385 184.885 195.766 187.089 198.577 189.114C200.549 190.543 202.226 192.628 203.557 194.295C203.624 194.376 203.692 194.458 203.761 194.542C204.809 195.811 206.056 197.321 206.565 197.154Z" fill="#848484"/>
<path d="M359.575 865.931C358.284 864.416 356.644 863.809 354.757 864.052C348.349 864.901 339.607 876.117 333 886H334.937C341.246 876.663 349.293 866.659 354.906 865.871C356.346 865.689 357.539 866.113 358.532 867.265C361.959 871.206 365.784 878.421 369.261 886H371C367.374 877.997 363.301 870.175 359.575 865.931Z" fill="#848484"/>
<path fill-rule="evenodd" clip-rule="evenodd" d="M365.4 587.147C374.95 580.458 391.499 580.278 414.598 586.669C431.148 591.268 445.247 597.719 446.397 598.256C461.246 601.541 463.096 604.468 462.996 606.618C462.896 609.544 458.896 613.546 428.698 618.922C409.948 622.266 387.599 625.014 371.3 626.985L367.25 627.462C364.3 627.821 361.65 628 359.25 628C350.101 628 344.751 625.372 343.351 620.236C340.801 610.978 352.551 596.166 365.4 587.147ZM428.448 617.189C458.097 611.874 461.396 607.992 461.446 606.558C461.446 605.841 460.396 603.213 446.047 600.048L445.897 599.988C445.889 599.985 445.845 599.965 445.765 599.929C444.275 599.249 430.435 592.94 414.298 588.461C405.549 586.012 395.099 583.862 385.599 583.862C378.15 583.862 371.25 585.236 366.2 588.76C359.85 593.239 353.901 599.033 349.851 604.707C345.601 610.739 343.801 616.055 344.801 619.758C346.351 625.253 354.051 627.343 367.1 625.73L371.15 625.253C372.355 625.102 373.592 624.949 374.858 624.792C390.726 622.821 411.13 620.287 428.448 617.189Z" fill="#848484"/>
<path fill-rule="evenodd" clip-rule="evenodd" d="M377.02 210.819C376.623 206.135 382.036 200.632 393.061 194.368C400.311 190.27 408.952 191.558 414.961 197.705C419.728 202.564 424.893 209.472 422.311 215.209C420.324 219.658 414.017 222 405.625 222C400.013 222 393.458 220.946 386.605 218.78C380.397 216.848 377.269 214.214 377.02 210.819ZM387.002 217.083C402.844 222.117 418.09 220.888 421.019 214.39C422.658 210.643 420.275 205.374 414.017 199.052C410.541 195.598 406.221 193.783 401.851 193.783C399.07 193.783 396.289 194.485 393.706 195.949C383.625 201.686 378.212 206.896 378.51 210.643C378.709 213.16 381.639 215.385 387.002 217.083Z" fill="#848484"/>
<path d="M535.15 867.578C509.023 863.656 493.678 837.39 474.321 804.112C468.905 794.841 463.288 785.214 456.97 775.231C441.123 750.212 423.371 735.178 404.264 730.543C382.55 725.313 358.68 733.395 333.355 754.551C305.523 777.786 265.254 815.165 230.702 849.869C221.024 859.615 208.387 872.57 196 886H198.207C208.035 875.422 219.218 863.775 231.655 851.236C266.157 816.591 306.376 779.212 334.157 756.036C381.347 716.637 422.267 723.471 455.716 776.36C461.984 786.284 467.601 795.911 473.017 805.181C492.625 838.816 508.12 865.32 534.899 869.361C553.905 872.213 564.788 877.799 567.395 886H569C566.543 876.789 555.159 870.609 535.15 867.578Z" fill="#848484"/>
<path d="M391.6 798.315C382.15 793.371 372.45 793.966 362.75 800.042C338.7 815.054 316.9 832.805 297.95 852.88C286.3 865.21 277.5 876.529 271 886H273C287.8 864.734 316.4 830.958 363.4 801.591C372.7 795.813 381.95 795.217 390.95 799.923C409.1 809.395 423.3 838.583 432 861.458C435.35 870.155 438.15 878.673 440.4 886H442C439.7 878.494 436.85 869.738 433.4 860.743C420.6 827.086 406.5 806.059 391.6 798.315Z" fill="#848484"/>
<path fill-rule="evenodd" clip-rule="evenodd" d="M156.986 678.832C155.216 674.561 155.519 668.393 160.476 664.953C167.91 659.793 178.076 662.165 182.072 666.199C183.791 667.919 184.398 669.935 183.741 671.833C182.426 675.866 177.368 680.018 168.77 684.11C167.506 684.703 166.241 685 165.078 685C161.336 685 158.402 682.153 156.986 678.832ZM168.163 682.45C176.256 678.594 181.161 674.68 182.325 671.181C182.83 669.698 181.92 668.334 181.01 667.563C178.886 665.428 174.688 663.826 170.237 663.826C167.152 663.826 163.966 664.597 161.184 666.495C157.037 669.342 156.733 674.324 158.301 678.001C159.869 681.679 163.612 684.644 168.163 682.45Z" fill="#848484"/>
<path fill-rule="evenodd" clip-rule="evenodd" d="M236.796 824.568C234.849 830.53 213.732 843.537 206.743 846.97C205.246 847.692 203.798 848.054 202.45 847.994C198.157 847.994 194.812 844.681 193.164 840.707C191.068 835.648 191.467 828.362 197.158 824.327C207.143 817.221 231.155 816.077 235.948 821.015C236.946 821.978 237.246 823.243 236.796 824.568ZM197.907 825.893C193.015 829.386 192.665 835.468 194.512 839.924C196.359 844.38 200.753 847.994 206.144 845.284C214.98 840.888 233.801 828.603 235.349 823.905C235.498 823.484 235.548 823.002 234.949 822.4C230.656 818.004 207.043 819.389 197.907 825.893Z" fill="#848484"/>
<path fill-rule="evenodd" clip-rule="evenodd" d="M323.883 489C316.453 489 308.516 488.126 302.855 485.62C294.767 482.123 294.312 476.762 295.475 472.915C296.637 468.778 299.013 465.747 302.602 463.941C309.022 460.735 319.132 461.493 332.628 466.272C342.586 469.827 350.826 474.314 350.927 474.372C355.173 476.82 355.325 479.151 354.769 480.666C353.1 485.037 342.586 487.601 333.336 488.534C330.455 488.825 327.219 489 323.883 489ZM303.158 465.572C299.974 467.146 297.851 469.827 296.84 473.498C295.576 477.985 297.749 481.54 303.411 484.046C310.083 486.96 321.507 488.009 333.184 486.844C343.951 485.736 352.241 482.939 353.353 480.025C353.909 478.51 351.938 476.995 350.219 476.004C349.714 475.713 327.775 463.824 312.004 463.824C308.719 463.824 305.686 464.29 303.158 465.572Z" fill="#848484"/>
</g>
</g>
<defs>
<filter id="filter0_d_213_8051" x="0" y="0" width="458" height="956" filterUnits="userSpaceOnUse" color-interpolation-filters="sRGB">
<feFlood flood-opacity="0" result="BackgroundImageFix"/>
<feColorMatrix in="SourceAlpha" type="matrix" values="0 0 0 0 0 0 0 0 0 0 0 0 0 0 0 0 0 0 127 0" result="hardAlpha"/>
<feOffset dx="6" dy="6"/>
<feGaussianBlur stdDeviation="27"/>
<feColorMatrix type="matrix" values="0 0 0 0 0 0 0 0 0 0 0 0 0 0 0 0 0 0 0.05 0"/>
<feBlend mode="normal" in2="BackgroundImageFix" result="effect1_dropShadow_213_8051"/>
<feBlend mode="normal" in="SourceGraphic" in2="effect1_dropShadow_213_8051" result="shape"/>
</filter>
</defs>
</svg>
