<svg width="1219" height="454" viewBox="0 0 1219 454" fill="none" xmlns="http://www.w3.org/2000/svg">
<g filter="url(#filter0_d_213_11821)">
<rect x="48" y="48" width="1141" height="346" rx="14" fill="#4880FF"/>
</g>
<mask id="mask0_213_11821" style="mask-type:luminance" maskUnits="userSpaceOnUse" x="48" y="48" width="1141" height="346">
<rect x="48" y="48" width="1141" height="346" rx="14" fill="white"/>
</mask>
<g mask="url(#mask0_213_11821)">
<g opacity="0.1">
<g opacity="0.3">
<path d="M125.183 580.814C162.855 606.115 187.442 642.402 209.028 674.444C233.531 710.731 254.784 742.107 287.956 747.184C291.04 747.684 294.207 747.85 297.374 747.85C322.961 747.85 353.382 733.119 391.971 702.075C420.892 678.772 444.978 657.632 466.231 638.906C511.071 599.374 543.492 570.827 579.331 561.589C615.919 552.101 656.092 562.088 717.934 595.962C768.441 623.676 828.7 642.735 883.124 648.228C908.461 650.808 931.465 650.309 949.717 646.647C968.97 642.818 982.472 635.91 989.723 626.006C999.641 612.44 1002.06 587.223 956.968 544.028C903.044 492.345 841.702 486.103 776.776 479.528C733.77 475.2 689.263 470.623 644.34 452.562C593.5 432.172 549.41 396.717 509.488 344.368C479.983 305.668 445.562 287.358 409.807 291.436C385.47 294.182 361.55 306.999 338.713 329.387C315.793 352.025 295.124 383.235 277.454 422.185C264.286 451.064 249.784 465.879 232.865 467.377C196.276 470.623 153.937 409.201 113.098 349.778C92.678 320.066 71.5916 289.438 51.5054 267.467C41.0873 256.065 31.5859 247.659 22.668 242.083V245.162C50.7553 263.638 81.2597 307.915 111.014 351.192C131.517 380.988 152.77 411.865 173.189 434.336C195.026 458.305 213.695 470.04 230.114 470.04C231.114 470.04 232.115 469.957 233.115 469.873C250.951 468.292 266.203 453.062 279.705 423.267C297.291 384.566 317.71 353.606 340.463 331.218C362.883 309.163 386.303 296.596 410.057 293.933C444.812 290.021 478.566 307.998 507.487 345.949C547.66 398.715 592.166 434.336 643.34 454.893C688.596 473.119 733.27 477.614 776.442 482.025C840.952 488.599 901.877 494.758 955.218 545.859C999.058 587.889 997.057 611.858 987.723 624.592C974.054 643.151 935.048 651.058 883.374 645.814C829.283 640.321 769.358 621.346 719.101 593.798C656.675 559.592 616.003 549.604 578.664 559.259C542.242 568.663 509.654 597.376 464.564 637.159C443.311 655.885 419.308 677.024 390.387 700.244C347.548 734.7 315.126 748.849 288.289 744.771C256.201 739.943 235.282 708.983 211.028 673.113C189.275 640.904 164.605 604.451 126.516 578.817C94.9283 557.594 64.8407 546.941 36.7533 546.941C32.0026 546.941 27.3353 547.274 22.668 547.857V550.354C54.2558 546.109 88.6774 556.346 125.183 580.814Z" fill="white"/>
<path fill-rule="evenodd" clip-rule="evenodd" d="M306.625 701.909C304.208 701.909 301.874 701.659 299.624 701.077C279.204 696 262.952 681.602 252.617 659.38C242.199 636.743 238.698 607.53 242.616 574.822C246.199 545.36 256.618 516.147 272.953 490.347C331.045 398.382 379.302 347.947 416.39 340.456C428.309 338.043 439.227 340.123 448.645 346.698C483.966 371.198 507.005 395.049 527.325 416.084L528.073 416.858L528.255 417.046C559.673 449.582 584.519 475.312 638.922 490.181C673.344 499.585 689.596 508.241 688.513 516.73C687.679 523.305 676.011 528.548 653.758 532.377C632.171 536.039 601 538.286 563.661 538.785C535.491 539.201 506.237 550.104 474.149 572.325C446.145 591.8 419.641 617.184 396.221 639.656C361.633 672.863 331.378 701.909 306.625 701.909ZM275.12 491.679C259.035 517.146 248.7 546.026 245.199 575.155C241.365 607.364 244.782 636.077 255.034 658.298C264.952 679.854 280.621 693.836 300.29 698.663C302.374 699.163 304.541 699.412 306.708 699.412C330.377 699.412 360.297 670.701 394.467 637.911L394.471 637.908C417.891 615.353 444.478 589.886 472.732 570.328C505.236 547.857 534.991 536.704 563.661 536.288C600.917 535.789 631.921 533.542 653.341 529.88C680.928 525.136 685.679 519.393 686.096 516.397C687.262 506.909 653.091 496.506 638.339 492.511C583.164 477.364 558.077 451.397 526.406 418.523L526.063 418.168C505.728 397.115 482.701 373.276 447.311 348.696C440.811 344.201 433.643 341.954 425.808 341.954C422.975 341.954 419.974 342.287 416.974 342.87C380.635 350.277 332.878 400.296 275.12 491.679Z" fill="white"/>
<path d="M1187.33 566.583C1181.42 560.424 1174.67 554.099 1167 547.773C1137.83 523.721 1100.82 503.913 1056.98 488.849C1002.22 470.04 936.632 458.555 862.038 454.726C819.365 452.562 737.52 444.989 668.427 418.439C595.667 390.559 555.328 349.361 548.66 296.013C540.909 234.259 548.493 195.975 572.58 175.418C598.917 152.947 646.591 151.948 718.267 172.588C768.025 186.903 808.28 206.545 840.618 222.358C872.54 238.004 897.793 250.322 920.296 252.486C944.717 254.816 963.803 244.912 982.139 220.36C993.807 204.714 1003.06 189.899 1011.23 176.833C1027.65 150.45 1039.56 131.391 1058.98 124.317C1079.49 116.827 1107.24 123.152 1151.91 145.457C1164.66 151.782 1176.42 158.856 1187.33 166.18V163.184C1176.75 156.11 1165.33 149.368 1153.08 143.209C1107.74 120.572 1079.4 114.247 1058.15 121.903C1037.9 129.311 1025.89 148.619 1009.14 175.418C1001.06 188.401 991.807 203.133 980.222 218.779C942.55 269.298 904.627 250.738 841.785 220.027C809.364 204.131 768.941 184.407 719.018 170.092C646.424 149.285 598 150.367 570.996 173.421C546.243 194.56 538.408 233.593 546.243 296.263C553.077 350.61 593.916 392.473 667.594 420.77C737.02 447.402 819.199 454.976 861.955 457.223C936.299 460.968 1001.56 472.453 1056.07 491.179C1099.57 506.16 1136.33 525.802 1165.25 549.604C1173.75 556.595 1181.08 563.587 1187.33 570.245V566.583Z" fill="white"/>
<path d="M1187.33 513.568C1169.66 500.335 1148.41 487.018 1124.32 474.451C1055.9 438.664 975.22 413.779 897.292 404.458C818.364 394.97 760.772 384.566 716.099 371.583C659.008 355.104 623.003 334.547 606 308.914C594.498 291.519 591.998 271.462 598.416 249.157C603.25 232.678 612.084 221.775 625.503 215.866C670.926 195.725 758.022 237.921 834.866 275.124C862.953 288.773 889.541 301.59 912.127 310.412C950.216 325.309 973.636 328.638 990.472 321.397C1006.72 314.406 1016.06 298.261 1028.89 275.873C1036.64 262.39 1045.4 247.159 1057.73 230.348C1070.9 212.371 1087.57 202.966 1107.32 202.384C1134.33 201.635 1163.58 217.531 1187.33 235.008V231.929C1150.41 205.047 1123.82 199.471 1107.32 199.887C1086.82 200.469 1069.48 210.207 1055.81 228.85C1043.4 245.745 1034.64 261.142 1026.81 274.624C1001.64 318.318 990.138 338.292 913.044 308.081C890.541 299.259 864.037 286.442 835.95 272.876C758.605 235.425 670.926 192.979 624.503 213.619C610.501 219.778 600.916 231.596 595.999 248.574C589.331 271.545 591.915 292.351 603.833 310.412C621.252 336.461 657.674 357.351 715.432 373.997C760.272 386.98 818.03 397.383 897.042 406.871C974.636 416.192 1054.98 440.994 1123.16 476.615C1147.58 489.432 1169.41 503.164 1187.33 516.813V513.568Z" fill="white"/>
<path d="M1187.33 475.866C1139.83 434.669 1075.4 418.19 1024.89 405.373C975.886 392.889 940.548 383.901 944.382 359.598C945.465 352.524 955.3 353.024 972.552 354.522C988.555 355.853 1008.39 357.601 1027.14 351.276C1049.31 343.785 1064.57 326.89 1073.73 299.592C1080.15 280.45 1090.4 269.464 1104.07 267.134C1129.07 262.806 1161.91 287.108 1187.42 311.244V307.748C1186.75 307.166 1186.17 306.5 1185.5 305.917C1151.83 274.957 1124.32 261.058 1103.65 264.637C1088.99 267.134 1078.15 278.619 1071.4 298.76C1051.23 358.766 1004.06 354.688 972.802 352.025C955.8 350.527 943.465 349.528 941.965 359.265C940.048 371.583 946.799 381.071 963.468 388.977C978.303 396.052 999.64 401.545 1024.31 407.787C1075.23 420.77 1140.16 437.332 1187.42 479.278V475.866H1187.33Z" fill="white"/>
<path d="M1187.33 453.728C1171.17 443.574 1153.41 429.176 1138.16 413.696C1115.32 390.475 1101.74 369.003 1099.99 353.107C1099.07 344.534 1101.66 337.71 1107.82 332.883C1129.49 315.904 1164.83 344.201 1187.33 366.756V363.177C1182.67 358.6 1177.58 353.856 1172.25 349.361C1159.83 338.958 1148.33 331.801 1138.24 328.139C1125.41 323.478 1114.57 324.394 1106.24 330.968C1099.41 336.295 1096.49 343.869 1097.49 353.44C1100.99 385.898 1149.75 433.42 1187.33 456.724V453.728Z" fill="white"/>
<path fill-rule="evenodd" clip-rule="evenodd" d="M901.901 353.852C902.189 354.057 902.349 354.171 902.376 354.189C912.294 361.596 915.711 367.671 912.794 372.332C909.461 377.242 898.709 379.157 884.54 379.157C865.121 379.157 839.117 375.578 816.281 371C760.689 359.931 707.682 341.122 674.51 320.732C637.172 297.761 624.503 272.876 637.922 248.741C641.506 242.249 647.506 238.088 655.674 236.257C682.011 230.348 731.602 248.491 802.945 290.021C853.082 319.147 896.882 350.284 901.901 353.852ZM879.79 376.493C902.876 377.076 909.044 373.164 910.627 370.834C913.294 366.756 906.793 360.68 900.876 356.269C898.709 354.688 735.352 237.672 666.259 237.672C662.592 237.672 659.258 238.005 656.174 238.67C648.757 240.335 643.339 244.08 640.089 249.906C633.421 261.891 633.504 274.042 640.422 286.109C646.673 297.095 658.591 307.998 675.76 318.568C708.682 338.792 761.356 357.518 816.697 368.504C840.451 373.248 862.871 376.077 879.79 376.493Z" fill="white"/>
<path fill-rule="evenodd" clip-rule="evenodd" d="M815.14 332.784C815.743 333.157 816.078 333.364 816.115 333.382C816.186 333.439 816.265 333.501 816.352 333.57C817.791 334.702 821.178 337.367 819.449 339.957C818.365 341.622 815.031 342.204 810.531 342.204C798.196 342.204 777.276 337.377 771.942 336.129C744.188 329.471 718.434 319.899 703.099 310.495C687.68 301.007 682.346 291.769 687.18 283.03C688.347 280.949 690.347 279.535 693.014 278.869C703.849 276.039 727.852 284.445 764.441 303.67C788.507 316.315 810.335 329.813 815.14 332.784ZM772.442 333.715C800.779 340.456 815.948 340.623 817.365 338.542C817.448 338.376 817.282 337.377 814.615 335.463C812.281 333.965 727.102 280.866 697.681 280.866C696.098 280.866 694.764 281.033 693.514 281.366C691.43 281.865 690.097 282.864 689.263 284.279C685.18 291.602 690.18 299.675 704.266 308.331C719.351 317.652 744.855 327.14 772.442 333.715Z" fill="white"/>
<path d="M114.346 541.948C145.851 554.848 175.939 567.249 196.275 567.249C201.776 567.249 206.526 566.333 210.443 564.336C215.944 561.506 219.445 556.429 220.945 549.355C224.529 532.71 206.776 516.647 179.856 492.345C153.185 468.292 116.68 435.418 84.4255 386.148C62.589 352.774 41.9194 331.302 22.8333 321.73V324.477C41.2526 334.048 61.1722 355.021 82.3419 387.479C114.846 437.082 151.435 470.04 178.189 494.176C204.443 517.895 221.862 533.542 218.528 548.772C217.111 555.181 214.111 559.509 209.277 562.005C192.024 571.077 154.769 555.763 115.347 539.534C89.3428 528.881 62.4223 517.812 39.0857 512.819C33.2515 511.57 27.7507 510.738 22.75 510.322V512.819C27.584 513.235 32.9181 513.984 38.5856 515.232C61.6722 520.309 88.4261 531.295 114.346 541.948Z" fill="white"/>
<path d="M104.096 246.743C122.849 281.199 142.935 316.654 162.521 342.537C184.108 370.917 202.86 384.733 219.946 384.733C220.113 384.733 220.28 384.733 220.446 384.733C237.449 384.483 252.451 370.834 266.286 343.203C295.374 285.194 329.795 249.739 365.884 240.834C390.554 234.759 415.891 240.751 441.144 258.811C460.564 272.71 474.399 277.287 483.234 272.876C496.319 266.385 497.069 242.166 497.903 214.202C498.819 183.491 499.819 148.619 518.239 132.64C526.823 125.233 538.325 122.486 553.411 124.151C592.916 128.645 630.505 122.653 662.093 107.006C692.097 92.1084 715.35 69.3876 729.269 41.257C742.521 14.5413 746.355 -15.5867 740.521 -45.7147C738.104 -58.2819 734.02 -70.5994 728.436 -82.6672H725.602C745.105 -41.5533 746.188 1.72444 727.102 40.1751C713.433 67.8063 690.597 90.111 661.093 104.759C629.921 120.239 592.749 126.065 553.744 121.654C538.158 119.906 525.657 122.902 516.655 130.726C497.402 147.371 496.402 182.825 495.402 214.035C494.652 240.085 493.902 264.72 482.15 270.546C474.149 274.541 461.231 269.964 442.561 256.647C416.641 238.171 390.637 232.012 365.217 238.254C328.378 247.409 293.373 283.28 264.036 341.954C250.617 368.67 236.365 381.82 220.446 382.07C220.28 382.07 220.113 382.07 219.946 382.07C183.691 382.07 143.935 314.573 106.263 245.328C83.1766 202.883 55.0893 173.754 22.668 158.273V161.02C54.2558 176.667 81.5931 205.296 104.096 246.743Z" fill="white"/>
<path d="M135.517 139.88C149.935 139.88 162.604 137.8 173.022 133.555C196.776 123.901 208.611 104.176 208.194 74.7141C207.777 45.8345 215.528 24.3621 231.864 9.13165C272.12 -28.6532 358.799 -22.1615 450.645 -15.1705C464.147 -14.1718 478.149 -13.0898 491.901 -12.1743C505.32 -11.2588 517.655 -10.8427 528.99 -10.8427C580.747 -10.8427 610.085 -20.0809 616.502 -38.4739C621.003 -51.4572 613.502 -67.1871 601.5 -82.5007H598.25C610.585 -67.2703 618.419 -51.7069 614.169 -39.2229C606.834 -18.0834 565.828 -9.76076 492.151 -14.5879C478.399 -15.5034 464.397 -16.5853 450.895 -17.5841C358.549 -24.5751 271.286 -31.15 230.197 7.3839C213.361 23.1969 205.36 45.252 205.777 74.8806C206.194 103.178 194.859 122.236 172.189 131.391C143.018 143.21 95.5944 137.8 41.92 116.577C35.5025 114.08 29.1682 111.334 22.834 108.504V111.251C28.8348 113.997 34.919 116.577 41.0032 118.907C76.0916 132.723 108.763 139.88 135.517 139.88Z" fill="white"/>
<path d="M87.7606 60.6489C117.765 58.8179 143.185 43.0881 163.438 13.8756L166.772 9.04842C191.359 -26.4061 203.694 -44.2165 221.946 -51.6237C240.199 -59.0309 264.953 -56.3676 314.293 -50.9579C320.294 -50.2921 326.711 -49.6263 333.462 -48.8772C391.887 -42.552 434.227 -40.4713 462.898 -42.4688C490.485 -44.383 506.154 -49.9592 512.155 -60.0296C515.822 -66.1883 515.655 -73.6787 512.655 -82.5007H510.071C513.071 -74.0116 513.405 -66.9374 509.988 -61.278C504.487 -52.0398 489.068 -46.7133 462.731 -44.8824C434.227 -42.9681 392.054 -45.0488 333.712 -51.374C326.961 -52.1231 320.544 -52.7889 314.543 -53.4547C264.786 -58.9476 239.866 -61.6941 220.946 -53.954C202.027 -46.214 189.525 -28.237 164.688 7.63358L161.354 12.4607C141.518 41.0074 116.765 56.4043 87.5939 58.1521C72.5918 59.0676 50.8387 56.4875 22.668 43.3377V46.0842C47.4215 57.4863 67.2577 60.8153 82.0098 60.8153C84.0101 60.8153 85.927 60.7321 87.7606 60.6489Z" fill="white"/>
<path d="M635.755 -21.1628C619.169 11.3787 546.158 6.96774 545.325 6.88451C504.402 6.88451 466.397 3.97158 432.892 1.30833C383.052 -2.60331 339.962 -5.93237 308.124 2.30705C291.289 6.63483 278.203 14.042 268.202 24.8614C257.367 36.5131 250.033 52.243 245.699 72.7999C231.28 141.545 193.525 149.784 163.104 156.359C144.768 160.354 128.932 163.766 123.681 180.079C118.931 194.976 124.432 224.605 137.85 255.565C152.185 288.773 171.688 314.49 190.024 324.31C195.942 327.473 201.859 329.054 207.443 329.054C218.112 329.054 228.196 323.395 237.031 312.326C250.45 295.514 261.368 277.204 271.953 259.477C291.705 226.353 308.708 197.806 335.128 191.398C351.381 187.486 370.3 192.313 392.803 206.378C422.641 224.938 443.31 230.764 456.062 224.189C471.898 216.033 473.481 190.815 475.148 164.016C477.399 128.062 479.732 90.86 516.738 92.5246C525.239 92.8575 533.407 93.1072 541.324 93.1072C621.336 93.1072 673.26 74.2148 695.68 36.7628C713.349 7.38387 708.848 -28.0706 702.014 -52.5392C698.764 -64.2742 694.68 -74.5942 691.096 -82.584H688.345C692.013 -74.5942 696.263 -63.858 699.597 -51.7902C711.682 -8.26271 702.931 19.7014 693.513 35.5144C669.343 75.7961 609.834 94.1891 516.821 90.111C499.068 89.362 487.233 96.8524 480.649 113.082C474.898 127.147 473.731 145.873 472.648 164.016C471.064 190.066 469.481 214.618 454.895 222.108C442.977 228.267 423.141 222.441 394.053 204.381C370.883 189.983 351.381 184.989 334.462 189.151C307.041 195.809 289.705 224.772 269.702 258.395C259.201 276.039 248.283 294.266 234.947 310.911C221.945 327.14 207.193 330.885 191.024 322.23C173.188 312.659 154.019 287.441 139.934 254.733C127.015 224.772 121.348 195.143 125.848 180.994C130.682 166.014 145.101 162.851 163.437 158.939C178.773 155.61 196.108 151.865 211.611 140.047C229.53 126.398 241.448 104.592 247.949 73.3825C256.034 34.6822 274.703 13.5426 308.541 4.80385C322.71 1.14188 339.296 -0.189743 357.715 -0.189743C380.051 -0.189743 405.305 1.80769 432.476 3.88836C466.064 6.46838 504.069 9.46453 544.992 9.46453C544.992 9.46453 544.992 9.46453 545.075 9.46453C545.242 9.46453 564.078 10.7129 584.664 7.71677C612.668 3.7219 630.504 -5.59946 637.838 -19.9144C645.756 -35.4778 640.672 -56.4509 622.669 -82.5008H619.669C638.005 -56.7005 643.339 -36.1436 635.755 -21.1628Z" fill="white"/>
<path d="M642.09 9.04838C628.422 26.1098 587.082 33.1841 522.656 29.5221C473.733 26.7756 428.393 18.7027 427.976 18.6194C427.726 18.5362 400.056 13.6258 368.884 19.7014C350.465 23.1969 334.463 29.7718 321.211 39.2596C304.625 51.0778 292.373 67.3902 284.872 87.6974C270.37 127.064 254.118 153.946 235.115 169.925C218.613 183.824 202.527 187.486 187.525 190.066C165.605 193.811 158.188 207.793 155.854 218.862C151.187 240.501 162.438 269.714 179.941 281.449C184.691 284.611 189.525 286.193 194.193 286.193C198.527 286.193 202.777 284.861 206.778 282.115C223.197 270.962 240.033 249.49 257.869 226.852C291.79 183.658 326.878 139.048 362.133 161.436C367.301 164.682 372.302 167.928 377.052 171.09C402.889 187.985 423.392 201.385 436.311 195.06C443.978 191.314 448.312 181.41 449.896 163.766C453.146 127.313 459.147 99.8485 477.9 84.3684C491.235 73.2992 510.238 69.2211 536.075 71.7179C608.419 78.7922 656.092 65.9753 677.845 33.7666C695.264 7.96643 692.264 -25.5739 686.68 -49.2102C683.513 -62.6096 679.179 -74.4278 675.762 -82.6672H673.095C676.512 -74.511 681.012 -62.4432 684.263 -48.6276C689.68 -25.4906 692.597 7.30062 675.762 32.3518C654.592 63.7282 607.669 76.129 536.325 69.2211C509.821 66.6411 490.235 70.9689 476.316 82.4542C456.98 98.5169 450.729 126.481 447.396 163.6C445.895 180.079 441.978 189.65 435.227 192.896C423.559 198.555 403.639 185.572 378.469 169.093C373.635 165.93 368.634 162.685 363.467 159.439C346.715 148.786 328.629 151.449 308.209 167.595C290.373 181.577 272.871 203.882 255.952 225.437C238.282 247.992 221.53 269.214 205.444 280.2C196.026 286.609 187.192 283.363 181.358 279.451C164.605 268.216 153.854 240.168 158.271 219.445C160.521 209.125 167.439 196.058 187.942 192.563C203.277 189.9 219.696 186.154 236.699 171.839C256.035 155.527 272.537 128.312 287.206 88.5297C294.54 68.6385 306.459 52.7423 322.544 41.257C335.463 32.0189 351.215 25.6105 369.218 22.1149C380.886 19.8678 392.054 19.1188 401.472 19.1188C416.808 19.1188 427.309 21.033 427.476 21.033C427.893 21.1162 473.399 29.1892 522.49 31.9357C588.666 35.6809 629.588 28.5234 644.007 10.5465C658.259 -7.18079 661.593 -30.9836 653.592 -58.5315C650.841 -67.9361 647.258 -76.2588 644.09 -82.6672H641.257C644.507 -76.342 648.341 -67.6865 651.175 -57.8657C656.592 -39.1398 659.426 -12.5073 642.09 9.04838Z" fill="white"/>
<path fill-rule="evenodd" clip-rule="evenodd" d="M375.385 42.006C384.303 37.6783 394.221 36.7628 403.389 39.5092C412.307 42.1725 419.058 47.7487 423.392 56.0713C436.394 81.1225 424.892 125.149 416.891 149.119C414.808 155.444 412.224 158.773 408.807 159.522C408.307 159.605 407.807 159.688 407.306 159.688C401.754 159.688 395.378 153.189 387.441 145.097L387.304 144.957C379.719 137.217 371.135 128.478 360.8 122.32C343.547 112 335.046 100.431 335.546 87.7806C336.463 65.7256 365.384 46.9164 375.385 42.006ZM408.307 157.108C410.724 156.526 412.807 153.696 414.558 148.37C432.893 93.2736 426.559 67.6398 421.142 57.3197C417.141 49.6629 410.89 44.5028 402.639 42.006C399.389 41.0073 396.055 40.508 392.638 40.508C387.137 40.508 381.636 41.7564 376.469 44.2532C366.801 48.9971 338.88 67.0572 338.047 87.8638C337.547 99.5156 345.714 110.418 362.133 120.156C372.62 126.34 381.633 135.546 388.932 142.999L389.137 143.209L389.232 143.306C397.026 151.255 403.741 158.103 408.307 157.108Z" fill="white"/>
<path fill-rule="evenodd" clip-rule="evenodd" d="M379.885 80.6231C382.802 79.2083 386.052 78.8754 389.053 79.7909C392.053 80.7063 394.303 82.5373 395.72 85.367C399.887 93.3568 396.304 107.089 393.803 114.58C393.387 115.994 392.553 117.909 390.719 118.325C390.469 118.408 390.303 118.408 390.053 118.408C387.989 118.408 386.007 116.367 383.378 113.659L383.302 113.581C381.051 111.25 378.468 108.587 375.384 106.756C369.8 103.427 367.049 99.5988 367.216 95.3542C367.529 87.3998 378.305 81.4914 379.73 80.7102C379.826 80.6577 379.879 80.6284 379.885 80.6231ZM390.219 115.828C390.469 115.828 390.97 115.162 391.47 113.747C393.303 108.005 397.387 93.8561 393.637 86.449C392.47 84.2851 390.803 82.8702 388.469 82.2044C387.552 81.9547 386.552 81.7883 385.635 81.7883C384.052 81.7883 382.552 82.1212 381.051 82.8702C378.801 84.0354 370.05 89.4451 369.8 95.5207C369.633 98.6833 371.967 101.763 376.717 104.592C380.051 106.59 382.885 109.503 385.135 111.833C385.249 111.946 385.364 112.061 385.48 112.178C387.252 113.952 389.359 116.062 390.219 115.828Z" fill="white"/>
<path d="M1187.33 110.418C1141.24 77.6271 1085.74 50.3288 1041.73 65.6425C1009.89 76.7116 987.805 109.003 976.22 161.603C970.886 185.905 957.55 201.218 936.631 207.128C897.458 218.28 834.783 192.646 791.027 147.454C755.938 111.334 741.853 71.6348 752.354 38.5938C762.106 7.96648 764.856 -25.3241 760.606 -60.196C759.689 -67.6032 758.439 -75.0103 756.938 -82.5007H754.355C755.938 -74.8439 757.188 -67.3535 758.105 -59.8631C762.356 -25.3241 759.605 7.63358 750.021 37.928C739.186 71.8844 753.521 112.416 789.276 149.285C810.113 170.758 836.283 188.818 863.037 200.136C882.04 208.209 900.376 212.288 916.545 212.288C924.046 212.288 931.047 211.372 937.381 209.624C958.884 203.549 973.219 187.153 978.72 162.185C990.138 110.502 1011.56 78.8755 1042.56 68.056C1086.07 52.9088 1141.49 80.7065 1187.33 113.581V110.418Z" fill="white"/>
<path d="M1187.33 45.5848C1153.33 16.5388 1099.99 -9.17821 1056.65 -0.439423C1029.73 4.9703 1009.22 22.864 995.806 52.5759C977.22 93.6898 953.633 122.486 925.629 138.299C895.625 155.194 868.954 152.364 851.868 147.038C831.199 140.546 813.363 126.897 801.611 108.587C789.443 89.6949 784.942 67.3902 789.026 45.8345C797.444 1.05865 800.694 -42.0527 798.611 -82.584H796.11C798.111 -42.3024 794.944 0.725754 786.609 45.3352C782.442 67.5566 787.026 90.4439 799.528 109.836C811.613 128.645 829.949 142.627 851.202 149.285C860.12 152.115 869.288 153.446 878.456 153.446C894.875 153.446 911.46 149.035 926.879 140.38C955.383 124.317 979.303 95.1046 998.139 53.4914C1011.22 24.5285 1031.06 7.21742 1057.15 1.89092C1078.32 -2.35363 1103.74 1.47479 1130.66 13.1265C1150.83 21.8653 1171.16 34.6822 1187.33 48.8307V45.5848Z" fill="white"/>
<path d="M1187.33 -3.51875C1180.5 -2.93616 1172.92 -2.93616 1164.83 -3.6852C1136.41 -6.34845 1102.07 -17.3344 1070.57 -33.9797C1034.06 -53.2882 1003.56 -24.4918 968.303 8.79877C941.465 34.1829 911.044 62.896 873.372 73.2993C860.12 76.9613 849.869 75.0471 842.785 67.8064C818.698 42.9216 834.784 -38.5571 845.785 -82.4175H843.201C839.868 -69.018 836.034 -52.2895 833.033 -34.8119C823.782 19.535 826.449 54.6566 840.951 69.6373C846.202 75.0471 852.953 77.7103 861.121 77.7103C865.121 77.7103 869.372 77.0445 874.039 75.7961C912.211 65.3096 942.966 36.3467 969.97 10.713C1004.56 -21.9118 1034.4 -50.1256 1069.32 -31.6493C1101.49 -14.5879 1135.33 -3.76842 1164.5 -1.10518C1172.67 -0.35614 1180.33 -0.272911 1187.25 -0.855499V-3.51875H1187.33Z" fill="white"/>
<path fill-rule="evenodd" clip-rule="evenodd" d="M671.927 135.636C671.26 128.978 680.345 121.155 698.847 112.249C711.016 106.423 725.434 108.254 735.603 116.993C743.604 123.901 752.272 133.722 747.938 141.878C744.604 148.203 734.019 151.532 719.934 151.532C710.516 151.532 699.514 150.034 688.012 146.955C677.594 144.208 672.344 140.463 671.927 135.636ZM688.596 144.541C715.183 151.699 740.77 149.951 745.687 140.713C748.521 135.469 744.437 127.896 733.936 118.907C728.101 113.997 720.85 111.417 713.516 111.417C708.849 111.417 704.181 112.416 699.847 114.496C682.928 122.653 673.844 130.06 674.344 135.386C674.677 138.965 679.595 142.128 688.596 144.541Z" fill="white"/>
</g>
<g opacity="0.21">
<path d="M124.221 579.755C161.877 605.038 186.454 641.299 208.031 673.318C232.524 709.579 253.768 740.932 286.925 746.006C290.007 746.505 293.173 746.671 296.339 746.671C321.915 746.671 352.323 731.95 390.895 700.929C419.804 677.642 443.88 656.518 465.124 637.806C509.945 598.301 542.352 569.775 578.175 560.543C614.748 551.062 654.903 561.042 716.719 594.891C767.205 622.586 827.437 641.631 881.839 647.12C907.165 649.698 930.158 649.199 948.403 645.54C967.647 641.714 981.144 634.811 988.391 624.915C998.305 611.358 1000.72 586.159 955.651 542.995C901.75 491.349 840.434 485.111 775.536 478.541C732.548 474.216 688.061 469.642 643.157 451.595C592.338 431.219 548.267 395.79 508.362 343.478C478.87 304.805 444.463 286.508 408.724 290.584C384.397 293.328 360.487 306.136 337.661 328.508C314.75 351.129 294.09 382.317 276.428 421.239C263.265 450.098 248.769 464.902 231.857 466.399C195.284 469.642 152.963 408.265 112.142 348.884C91.7307 319.193 70.6534 288.588 50.5758 266.632C40.1621 255.071 30.6648 246.672 21.834 241.099V244.177C49.9093 262.64 80.4006 306.884 110.142 350.131C130.636 379.905 151.88 410.76 172.291 433.215C194.118 457.167 212.779 468.894 229.191 468.894C230.191 468.894 231.191 468.81 232.191 468.727C250.019 467.147 265.264 451.927 278.761 422.154C296.339 383.481 316.75 352.543 339.493 330.171C361.904 308.132 385.314 295.574 409.057 292.912C443.797 289.004 477.537 306.968 506.446 344.892C546.601 397.619 591.088 433.215 642.24 453.757C687.477 471.971 732.131 476.462 775.286 480.87C839.767 487.44 900.667 493.594 953.985 544.659C997.805 586.658 995.806 610.61 986.475 623.334C972.813 641.881 933.824 649.782 882.172 644.542C828.104 639.053 768.204 620.091 717.969 592.563C655.57 558.381 614.915 548.401 577.592 558.048C541.186 567.446 508.612 596.139 463.541 635.893C442.297 654.605 418.304 675.73 389.396 698.933C346.575 733.364 314.167 747.503 287.342 743.427C255.267 738.604 234.357 707.666 210.114 671.821C188.37 639.635 163.71 603.208 125.638 577.593C94.0634 556.385 63.9886 545.74 35.9133 545.74C31.1647 545.74 26.4993 546.072 21.834 546.655V549.15C53.4083 545.074 87.7318 555.221 124.221 579.755Z" fill="white"/>
<path fill-rule="evenodd" clip-rule="evenodd" d="M305.585 700.68C303.169 700.68 300.836 700.43 298.587 699.848C278.176 694.858 261.931 680.387 251.6 658.181C241.187 635.56 237.688 606.368 241.603 573.684C245.185 544.243 255.599 515.051 271.928 489.269C329.995 397.37 378.231 346.971 415.304 339.486C427.217 337.074 438.13 339.153 447.544 345.723C482.85 370.206 505.88 394.04 526.191 415.059L526.938 415.833L527.12 416.021C558.525 448.534 583.36 474.245 637.74 489.103C672.147 498.501 688.392 507.15 687.309 515.633C686.476 522.204 674.813 527.443 652.569 531.269C630.992 534.928 599.834 537.174 562.512 537.673C534.353 538.088 505.111 548.983 473.037 571.189C445.045 590.65 418.553 616.016 395.143 638.471C360.569 671.654 330.328 700.68 305.585 700.68ZM274.094 490.6C258.015 516.049 247.685 544.908 244.186 574.017C240.353 606.202 243.769 634.978 254.016 657.183C263.93 678.724 279.592 692.696 299.253 697.519C301.336 698.018 303.502 698.268 305.668 698.268C329.327 698.268 359.234 669.577 393.39 636.811L393.393 636.808C416.803 614.269 443.379 588.82 471.621 569.276C504.112 546.821 533.853 535.677 562.512 535.261C599.751 534.762 630.742 532.516 652.153 528.857C679.728 524.116 684.477 518.378 684.893 515.384C686.06 505.903 651.903 495.507 637.157 491.515C582.006 476.379 556.93 450.43 525.272 417.58L524.93 417.225C504.603 396.187 481.586 372.365 446.211 347.803C439.713 343.312 432.549 341.066 424.718 341.066C421.885 341.066 418.886 341.399 415.887 341.981C379.564 349.3 331.827 399.283 274.094 490.6Z" fill="white"/>
<path d="M1056.87 121.173C1036.63 128.574 1024.63 147.869 1007.88 174.649C999.803 187.623 990.556 202.344 978.976 217.979C941.32 268.461 903.414 249.915 840.599 219.226C808.191 203.342 767.786 183.631 717.884 169.326C645.321 148.535 596.918 149.616 569.926 172.653C545.183 193.777 537.352 232.783 545.183 295.407C552.014 349.715 592.836 391.548 666.482 419.825C735.879 446.438 818.022 454.007 860.76 456.252C935.072 459.995 1000.3 471.472 1054.79 490.184C1098.28 505.154 1135.01 524.782 1163.92 548.567C1173.42 556.385 1181.5 564.12 1188.25 571.605V567.945C1181.83 561.126 1174.42 553.973 1165.76 546.821C1136.6 522.786 1099.61 502.992 1055.79 487.939C1001.05 469.143 935.488 457.666 860.926 453.84C818.272 451.678 736.462 444.11 667.398 417.579C594.669 389.719 554.347 348.551 547.682 295.241C539.935 233.531 547.516 195.274 571.592 174.732C597.918 152.277 645.571 151.279 717.217 171.904C766.953 186.209 807.192 205.837 839.516 221.638C871.423 237.274 896.666 249.582 919.16 251.745C943.569 254.073 962.647 244.176 980.975 219.642C992.639 204.007 1001.89 189.203 1010.05 176.146C1026.46 149.782 1038.38 130.737 1057.79 123.668C1078.28 116.183 1106.02 122.503 1150.68 144.792C1164.26 151.612 1176.75 159.097 1188.25 166.998V163.837C1177.09 156.186 1164.92 149.034 1151.76 142.463C1106.36 119.842 1078.03 113.438 1056.87 121.173Z" fill="white"/>
<path d="M1105.94 199.017C1085.45 199.599 1068.12 209.33 1054.46 227.959C1042.04 244.842 1033.3 260.228 1025.46 273.701C1000.3 317.363 988.808 337.323 911.747 307.134C889.253 298.318 862.76 285.51 834.685 271.954C757.374 234.529 669.732 192.114 623.329 212.739C609.333 218.894 599.752 230.703 594.837 247.67C588.172 270.624 590.755 291.415 602.668 309.463C619.996 335.66 656.486 356.452 714.136 373.085C758.957 386.059 816.69 396.455 895.668 405.936C973.229 415.251 1053.54 440.035 1121.69 475.63C1147.1 488.937 1169.67 503.241 1188 517.463V514.136C1169.92 500.331 1147.93 486.525 1122.77 473.385C1054.37 437.623 973.729 412.756 895.834 403.441C816.94 393.96 759.373 383.564 714.719 370.59C657.652 354.123 621.663 333.581 604.667 307.966C593.171 290.584 590.671 270.54 597.086 248.252C601.918 231.785 610.749 220.89 624.162 214.985C669.566 194.859 756.624 237.024 833.436 274.2C861.511 287.839 888.087 300.647 910.664 309.463C948.736 324.349 972.146 327.676 988.974 320.441C1005.22 313.455 1014.55 297.32 1027.38 274.948C1035.13 261.475 1043.88 246.256 1056.21 229.456C1069.37 211.492 1086.03 202.094 1105.77 201.512C1133.6 200.763 1163.84 217.729 1187.92 235.777V232.616C1150.1 204.34 1122.77 198.518 1105.94 199.017Z" fill="white"/>
<path d="M1102.19 263.721C1087.53 266.216 1076.7 277.693 1069.95 297.819C1049.79 357.783 1002.64 353.707 971.397 351.046C954.401 349.549 942.072 348.551 940.572 358.282C938.656 370.59 945.404 380.071 962.066 387.972C976.895 395.041 998.222 400.53 1022.88 406.768C1074.53 419.908 1140.68 436.791 1188.08 480.121V476.711C1140.43 434.13 1074.78 417.413 1023.47 404.356C974.479 391.881 939.156 382.899 942.988 358.614C944.071 351.545 953.902 352.044 971.147 353.541C987.142 354.872 1006.97 356.618 1025.71 350.298C1047.87 342.813 1063.12 325.93 1072.28 298.651C1078.7 279.522 1088.95 268.544 1102.61 266.216C1128.35 261.725 1162.26 287.59 1188.17 312.373V308.88C1186.84 307.55 1185.42 306.302 1184 304.972C1150.35 274.033 1122.85 260.145 1102.19 263.721Z" fill="white"/>
<path d="M1136.93 327.26C1124.1 322.603 1113.27 323.518 1104.94 330.088C1098.11 335.411 1095.19 342.979 1096.19 352.543C1099.78 385.643 1150.34 434.379 1188.17 457.084V454.09C1171.42 443.86 1152.76 428.89 1136.77 412.673C1113.94 389.469 1100.36 368.012 1098.61 352.127C1097.69 343.561 1100.28 336.741 1106.44 331.918C1128.85 314.369 1165.76 345.141 1188.17 367.929V364.353C1183 359.113 1177.09 353.624 1170.84 348.385C1158.43 338.072 1147.01 330.92 1136.93 327.26Z" fill="white"/>
<path fill-rule="evenodd" clip-rule="evenodd" d="M900.608 352.956C900.896 353.16 901.056 353.274 901.083 353.292C910.997 360.693 914.496 366.765 911.497 371.339C908.164 376.246 897.417 378.159 883.255 378.159C863.844 378.159 837.851 374.582 815.024 370.008C759.457 358.947 706.472 340.151 673.315 319.775C635.992 296.821 623.329 271.954 636.742 247.836C640.324 241.349 646.322 237.191 654.487 235.361C680.813 229.539 730.382 247.586 801.695 289.17C851.81 318.275 895.59 349.389 900.608 352.956ZM878.506 375.497C901.583 376.079 907.748 372.171 909.331 369.842C912.08 365.85 905.582 359.695 899.583 355.288C897.417 353.707 734.131 236.775 665.067 236.775C661.401 236.775 658.069 237.107 654.987 237.773C647.572 239.436 642.157 243.179 638.908 249C632.243 260.976 632.326 273.119 639.241 285.178C645.489 296.156 657.403 307.051 674.564 317.613C707.472 337.823 760.123 356.535 815.441 367.513C839.184 372.254 861.594 375.081 878.506 375.497Z" fill="white"/>
<path fill-rule="evenodd" clip-rule="evenodd" d="M813.882 331.902C814.485 332.274 814.82 332.481 814.857 332.5C816.107 333.415 820.022 336.325 818.106 339.07C817.023 340.733 813.691 341.315 809.192 341.315C796.862 341.315 775.952 336.492 770.62 335.244C742.878 328.591 717.135 319.027 701.806 309.629C686.394 300.148 681.062 290.916 685.894 282.184C687.06 280.105 689.06 278.691 691.726 278.025C702.556 275.281 726.632 283.598 763.205 302.809C787.26 315.444 809.08 328.933 813.882 331.902ZM771.203 332.749C799.528 339.486 814.69 339.652 816.107 337.573C816.273 337.49 816.023 336.492 813.358 334.496C811.025 332.999 725.882 279.938 696.474 279.938C694.891 279.938 693.558 280.105 692.309 280.437C690.226 280.936 688.893 281.934 688.06 283.348C683.978 290.667 688.976 298.734 703.056 307.383C718.135 316.698 743.627 326.179 771.203 332.749Z" fill="white"/>
<path d="M113.391 540.916C144.882 553.807 174.956 566.199 195.284 566.199C200.782 566.199 205.531 565.284 209.446 563.288C214.945 560.46 218.444 555.387 219.943 548.318C223.526 531.685 205.781 515.633 178.872 491.349C152.213 467.313 115.723 434.462 83.4824 385.228C61.572 351.878 40.9945 330.421 21.8333 320.856V323.601C40.2447 333.165 60.1557 354.123 81.3163 386.558C113.807 436.126 150.38 469.06 177.122 493.178C203.365 516.881 220.777 532.516 217.444 547.736C216.028 554.14 213.029 558.464 208.197 560.959C190.952 570.024 153.712 554.722 114.307 538.504C88.3143 527.859 61.4053 516.798 38.0787 511.808C32.247 510.56 26.7486 509.728 21.75 509.313V511.808C26.582 512.223 31.9138 512.972 37.5788 514.219C60.7389 519.293 87.5645 530.271 113.391 540.916Z" fill="white"/>
<path d="M103.227 245.923C121.972 280.354 142.05 315.783 161.627 341.648C183.205 370.008 201.949 383.814 219.028 383.814C219.194 383.814 219.361 383.814 219.528 383.814C236.523 383.564 251.518 369.925 265.348 342.314C294.423 284.346 328.83 248.917 364.903 240.018C389.562 233.947 414.888 239.935 440.131 257.982C459.542 271.871 473.372 276.445 482.203 272.038C495.282 265.551 496.032 241.349 496.865 213.405C497.781 182.716 498.781 147.869 517.193 131.901C525.773 124.499 537.27 121.755 552.349 123.418C591.838 127.909 629.411 121.921 660.985 106.286C690.976 91.399 714.22 68.6945 728.132 40.5841C741.379 13.8875 745.211 -16.2189 739.379 -46.3254C736.963 -58.8836 732.881 -71.1923 727.299 -83.2515H724.467C743.961 -42.167 745.044 1.07977 725.966 39.5029C712.304 67.1143 689.477 89.403 659.985 104.04C628.827 119.509 591.671 125.331 552.682 120.923C537.104 119.177 524.607 122.171 515.61 129.988C496.365 146.622 495.366 182.051 494.366 213.239C493.616 239.27 492.866 263.887 481.12 269.709C473.122 273.701 460.209 269.127 441.548 255.82C415.638 237.357 389.646 231.203 364.236 237.44C327.413 246.588 292.423 282.433 263.098 341.066C249.686 367.763 235.44 380.903 219.528 381.153C219.361 381.153 219.194 381.153 219.028 381.153C182.788 381.153 143.049 313.704 105.393 244.509C82.3167 202.344 54.3247 173.235 21.834 157.766V160.511C53.325 175.897 80.6505 204.506 103.227 245.923Z" fill="white"/>
<path d="M134.551 139.137C148.963 139.137 161.626 137.058 172.04 132.816C195.783 123.169 207.613 103.458 207.196 74.0171C206.78 45.1582 214.528 23.7011 230.856 8.48156C271.095 -29.2762 357.737 -22.7892 449.544 -15.8032C463.04 -14.8052 477.036 -13.724 490.782 -12.8092C504.195 -11.8943 516.525 -11.4785 527.855 -11.4785C579.59 -11.4785 608.915 -20.71 615.33 -39.0899C619.829 -52.0639 612.331 -67.7825 600.334 -83.0852H597.085C609.415 -67.8657 617.246 -52.3134 612.997 -39.8384C605.666 -18.714 564.678 -10.3973 491.032 -15.221C477.286 -16.1358 463.29 -17.217 449.794 -18.215C357.487 -25.201 270.262 -31.7712 229.19 6.73505C212.362 22.5368 204.364 44.576 204.781 74.1834C205.197 102.46 193.867 121.505 171.207 130.654C142.048 142.463 94.6453 137.058 40.9939 115.85C34.5791 113.355 28.2475 110.611 21.916 107.783V110.527C27.9143 113.272 33.9959 115.85 40.0775 118.179C75.2341 131.984 107.891 139.137 134.551 139.137Z" fill="white"/>
<path d="M86.8148 59.9619C116.806 58.1322 142.216 42.4137 162.46 13.2221L165.792 8.39839C190.369 -27.0307 202.698 -44.8284 220.943 -52.2303C239.188 -59.6321 263.931 -56.9708 313.25 -51.5649C319.248 -50.8996 325.663 -50.2343 332.411 -49.4858C390.895 -43.2483 433.216 -41.0859 461.791 -43.0819C489.367 -44.9948 505.029 -50.5669 511.027 -60.6301C514.693 -66.7845 514.526 -74.2695 511.527 -83.0852H508.944C511.943 -74.6022 512.277 -67.533 508.861 -61.8776C503.363 -52.8125 487.95 -47.4066 461.624 -45.5769C433.133 -43.5809 390.978 -45.6601 332.661 -51.9808C325.913 -52.7293 319.498 -53.3946 313.5 -54.06C263.764 -59.549 238.855 -62.2935 219.943 -54.559C201.032 -46.8244 188.536 -28.8604 163.709 6.98455L160.377 11.8082C140.549 40.3345 115.806 55.7204 86.6481 57.4669C71.6524 58.3817 49.9086 55.8035 21.75 42.6632V45.4077C46.4929 56.8015 66.3206 60.1282 81.0664 60.1282C83.1491 60.1282 85.0653 60.045 86.8148 59.9619Z" fill="white"/>
<path d="M634.576 -21.7913C618.08 10.727 545.018 6.31913 544.185 6.23596C503.28 6.23596 465.291 3.32512 431.8 0.66378C381.981 -3.24506 338.91 -6.57173 307.086 1.66179C290.257 5.98647 277.178 13.3883 267.18 24.2C256.35 35.8434 249.019 51.5619 244.687 72.1042C230.274 140.8 192.535 149.034 162.127 155.604C143.799 159.596 127.97 163.006 122.722 179.306C117.973 194.193 123.471 223.801 136.884 254.739C151.214 287.922 170.708 313.621 189.036 323.435C194.951 326.595 200.866 328.175 206.448 328.175C217.111 328.175 227.192 322.52 236.023 311.458C249.436 294.659 260.349 276.362 270.929 258.648C290.674 225.547 307.669 197.021 334.078 190.617C350.323 186.708 369.235 191.532 391.728 205.587C421.553 224.133 442.214 229.955 454.96 223.385C470.789 215.234 472.372 190.035 474.038 163.255C476.287 127.327 478.62 90.1514 515.61 91.8147C524.107 92.1474 532.271 92.3969 540.186 92.3969C620.163 92.3969 672.065 73.518 694.475 36.0929C712.137 6.73496 707.638 -28.6941 700.807 -53.1452C697.558 -64.8717 693.476 -75.1844 689.893 -83.1685H687.144C690.81 -75.1844 695.058 -64.4559 698.391 -52.3967C710.471 -8.90041 701.723 19.0437 692.309 34.8454C668.149 75.0982 608.666 93.478 515.693 89.4029C497.948 88.6544 486.118 96.1394 479.537 112.357C473.788 126.412 472.622 145.125 471.539 163.255C469.956 189.286 468.373 213.821 453.794 221.306C441.881 227.46 422.053 221.638 392.978 203.591C369.818 189.203 350.323 184.213 333.412 188.371C306.003 195.025 288.674 223.967 268.68 257.566C258.183 275.198 247.269 293.411 233.94 310.045C220.944 326.262 206.198 330.005 190.036 321.355C172.208 311.791 153.046 286.592 138.967 253.907C126.054 223.967 120.389 194.359 124.888 180.221C129.72 165.251 144.132 162.091 162.46 158.182C177.789 154.855 195.118 151.113 210.613 139.303C228.525 125.664 240.438 103.874 246.936 72.6863C255.017 34.0137 273.679 12.8893 307.502 4.15679C321.665 0.497452 338.244 -0.833221 356.655 -0.833221C378.982 -0.833221 404.225 1.16279 431.384 3.24196C464.957 5.82013 502.947 8.81414 543.852 8.81414C543.852 8.81414 543.852 8.81414 543.935 8.81414C544.101 8.81414 562.929 10.0616 583.507 7.06763C611.499 3.07562 629.327 -6.23907 636.658 -20.5438C644.573 -36.096 639.491 -57.0541 621.496 -83.0853H618.497C636.825 -57.3867 642.157 -36.7613 634.576 -21.7913Z" fill="white"/>
<path d="M640.991 8.39846C627.328 25.4477 586.007 32.5169 521.608 28.8575C472.706 26.113 427.385 18.0458 426.969 17.9627C426.719 17.8795 399.06 12.9726 367.902 19.0438C349.491 22.5368 333.495 29.107 320.249 38.5881C303.67 50.3978 291.424 66.6985 283.926 86.9912C269.43 126.329 253.185 153.192 234.19 169.16C217.695 183.049 201.616 186.708 186.62 189.286C164.71 193.029 157.296 207.001 154.963 218.062C150.298 239.686 161.544 268.877 179.039 280.604C183.788 283.764 188.62 285.344 193.285 285.344C197.617 285.344 201.866 284.014 205.865 281.269C222.277 270.125 239.106 248.668 256.934 226.046C290.841 182.883 325.914 138.305 361.154 160.677C366.319 163.921 371.318 167.164 376.066 170.324C401.892 187.207 422.387 200.597 435.3 194.276C442.964 190.534 447.296 180.637 448.879 163.006C452.128 126.579 458.126 99.1335 476.871 83.6645C490.201 72.6033 509.195 68.5281 535.021 71.0231C607.334 78.0923 654.987 65.2846 676.731 33.099C694.142 7.3173 691.143 -26.199 685.561 -49.8184C682.396 -63.2082 678.064 -75.0179 674.648 -83.2515H671.982C675.398 -75.1011 679.896 -63.0419 683.145 -49.2362C688.561 -26.1158 691.476 6.65196 674.648 31.6852C653.487 63.0391 606.584 75.431 535.271 68.5281C508.779 65.95 489.201 70.2746 475.288 81.7517C455.96 97.8029 449.712 125.747 446.38 162.839C444.88 179.306 440.965 188.871 434.216 192.114C422.553 197.77 402.642 184.795 377.483 168.328C372.651 165.168 367.652 161.925 362.487 158.681C345.742 148.036 327.664 150.697 307.253 166.831C289.424 180.803 271.929 203.092 255.018 224.632C237.356 247.171 220.611 268.378 204.532 279.356C195.118 285.76 186.287 282.517 180.456 278.608C163.71 267.38 152.963 239.353 157.379 218.644C159.628 208.332 166.543 195.275 187.037 191.781C202.366 189.12 218.778 185.378 235.773 171.073C255.101 154.772 271.596 127.577 286.259 87.8229C293.59 67.946 305.503 52.0611 321.582 40.5841C334.495 31.3525 350.24 24.9487 368.235 21.4557C379.899 19.2102 391.062 18.4617 400.476 18.4617C415.805 18.4617 426.302 20.3745 426.469 20.3745C426.885 20.4577 472.372 28.5249 521.442 31.2694C587.589 35.0119 628.494 27.8595 642.907 9.89547C657.153 -7.73592 660.485 -31.6048 652.488 -59.0499C649.738 -68.4478 646.156 -76.7644 642.99 -83.1683H640.158C643.407 -76.8476 647.239 -68.1983 650.072 -58.3846C655.487 -39.8383 658.236 -13.1418 640.991 8.39846Z" fill="white"/>
<path fill-rule="evenodd" clip-rule="evenodd" d="M374.315 41.3325C383.23 37.0078 393.143 36.093 402.307 38.8375C411.305 41.4988 418.053 47.071 422.302 55.3877C435.298 80.4209 423.801 124.416 415.804 148.368C413.721 154.689 411.138 158.016 407.723 158.764C407.223 158.847 406.723 158.93 406.223 158.93C400.673 158.93 394.3 152.435 386.366 144.35L386.229 144.21C378.648 136.475 370.067 127.743 359.736 121.589C342.491 111.276 333.994 99.7156 334.493 87.0743C335.41 65.035 364.318 46.2393 374.315 41.3325ZM407.223 156.352C409.639 155.77 411.721 152.942 413.471 147.62C431.882 92.5633 425.551 66.9479 420.052 56.6352C416.054 48.9838 409.805 43.8275 401.558 41.3325C398.309 40.3345 394.976 39.8355 391.561 39.8355C386.062 39.8355 380.564 41.083 375.398 43.578C365.735 48.3185 337.826 66.3657 336.993 87.1574C336.493 98.8008 344.657 109.696 361.069 119.426C371.551 125.606 380.561 134.805 387.856 142.254L388.062 142.463L388.156 142.56C395.947 150.503 402.659 157.346 407.223 156.352Z" fill="white"/>
<path fill-rule="evenodd" clip-rule="evenodd" d="M378.899 79.922C381.815 78.5081 385.064 78.1755 388.063 79.0903C390.979 80.0051 393.228 81.8348 394.728 84.6625C398.893 92.6465 395.311 106.369 392.811 113.854C392.395 115.268 391.562 117.181 389.729 117.597C389.479 117.68 389.312 117.68 389.062 117.68C387 117.68 385.018 115.64 382.39 112.934L382.314 112.856C380.065 110.527 377.482 107.866 374.4 106.036C368.818 102.71 366.069 98.884 366.236 94.6425C366.548 86.6938 377.32 80.7896 378.744 80.009C378.84 79.9565 378.893 79.9272 378.899 79.922ZM389.146 115.102C389.396 115.102 389.896 114.436 390.395 113.022C392.312 107.284 396.31 93.1455 392.561 85.7436C391.395 83.5813 389.729 82.1675 387.396 81.5021C386.48 81.2526 385.48 81.0863 384.564 81.0863C382.981 81.0863 381.481 81.419 379.982 82.1675C377.732 83.3318 368.985 88.7376 368.735 94.8088C368.568 97.9692 370.901 101.046 375.65 103.874C378.982 105.87 381.815 108.781 384.064 111.11C384.177 111.222 384.292 111.338 384.408 111.454C386.179 113.227 388.286 115.336 389.146 115.102Z" fill="white"/>
<path d="M1040.46 64.8686C1008.64 75.9298 986.559 108.199 974.979 160.76C969.647 185.045 956.317 200.348 935.407 206.252C896.251 217.397 833.602 191.781 789.865 146.622C754.792 110.527 740.712 70.8566 751.209 37.8394C760.957 7.23396 763.706 -26.0328 759.457 -60.8797C758.541 -68.1984 757.291 -75.6834 755.791 -83.1685H753.209C754.792 -75.5171 756.041 -68.0321 756.958 -60.5471C761.206 -26.0328 758.457 6.90131 748.877 37.1741C738.046 71.1062 752.376 111.608 788.115 148.451C808.943 169.908 835.102 187.956 861.844 199.266C880.839 207.334 899.167 211.409 915.329 211.409C922.827 211.409 929.825 210.494 936.157 208.747C957.65 202.676 971.98 186.292 977.478 161.342C988.891 109.696 1010.3 78.0922 1041.29 67.2805C1085.45 51.8946 1142.01 80.8367 1188.17 114.353V111.276C1141.68 77.7595 1085.11 49.3996 1040.46 64.8686Z" fill="white"/>
<path d="M1055.37 -1.08273C1028.46 4.32312 1007.97 22.204 994.555 51.8946C975.977 92.979 952.401 121.755 924.409 137.557C894.417 154.439 867.758 151.612 850.68 146.289C830.019 139.802 812.191 126.163 800.444 107.866C788.281 88.987 783.782 66.6983 787.864 45.1581C796.279 0.414291 799.444 -42.7493 797.445 -83.1685H794.946C796.945 -42.9157 793.779 0.0816116 785.448 44.6591C781.283 66.8646 785.865 89.7355 798.361 109.113C810.441 127.909 828.769 141.881 850.013 148.535C858.927 151.362 868.091 152.693 877.255 152.693C893.667 152.693 910.246 148.285 925.658 139.636C954.15 123.584 978.06 94.3929 996.888 52.8094C1009.97 23.8673 1029.8 6.56863 1055.87 1.24595C1077.03 -2.99556 1102.44 0.830116 1129.35 12.4735C1150.43 21.5387 1171.75 35.178 1188.17 50.0649V46.7383C1154.26 16.9645 1099.61 -9.98158 1055.37 -1.08273Z" fill="white"/>
<path d="M1163.42 -4.4094C1135.01 -7.07074 1100.69 -18.0488 1069.2 -34.6822C1032.71 -53.9769 1002.22 -25.2011 966.979 8.06564C940.154 33.4315 909.746 62.1241 872.09 72.52C858.844 76.1793 848.597 74.2665 841.515 67.031C817.439 42.1641 833.601 -39.2563 844.598 -83.1685H842.015C838.683 -69.7786 834.85 -53.062 831.851 -35.597C822.604 18.711 825.27 53.8074 839.766 68.7775C845.014 74.1833 851.762 76.8447 859.927 76.8447C863.925 76.8447 868.174 76.1793 872.84 74.9318C910.995 64.4528 941.737 35.5107 968.729 9.89531C1003.3 -22.7061 1033.13 -50.8997 1068.03 -32.4366C1100.19 -15.3874 1134.02 -4.57573 1163.17 -1.91439C1172.25 -1.08272 1180.59 -1.08272 1188.17 -1.91439V-4.4094C1180.75 -3.57773 1172.42 -3.57773 1163.42 -4.4094Z" fill="white"/>
<path fill-rule="evenodd" clip-rule="evenodd" d="M670.731 134.895C670.065 128.242 679.146 120.424 697.64 111.525C709.804 105.704 724.3 107.533 734.38 116.266C742.378 123.169 751.042 132.983 746.71 141.133C743.377 147.454 732.797 150.78 718.718 150.78C709.304 150.78 698.307 149.283 686.81 146.206C676.397 143.462 671.148 139.719 670.731 134.895ZM687.477 143.794C714.052 150.947 739.628 149.2 744.544 139.969C747.293 134.646 743.294 127.161 732.797 118.179C726.965 113.272 719.717 110.694 712.386 110.694C707.721 110.694 703.056 111.692 698.723 113.771C681.812 121.921 672.731 129.323 673.231 134.646C673.564 138.222 678.479 141.382 687.477 143.794Z" fill="white"/>
</g>
</g>
</g>
<defs>
<filter id="filter0_d_213_11821" x="0" y="0" width="1249" height="454" filterUnits="userSpaceOnUse" color-interpolation-filters="sRGB">
<feFlood flood-opacity="0" result="BackgroundImageFix"/>
<feColorMatrix in="SourceAlpha" type="matrix" values="0 0 0 0 0 0 0 0 0 0 0 0 0 0 0 0 0 0 127 0" result="hardAlpha"/>
<feOffset dx="6" dy="6"/>
<feGaussianBlur stdDeviation="27"/>
<feColorMatrix type="matrix" values="0 0 0 0 0 0 0 0 0 0 0 0 0 0 0 0 0 0 0.05 0"/>
<feBlend mode="normal" in2="BackgroundImageFix" result="effect1_dropShadow_213_11821"/>
<feBlend mode="normal" in="SourceGraphic" in2="effect1_dropShadow_213_11821" result="shape"/>
</filter>
</defs>
</svg>
